<svg width="57" height="88" viewBox="0 0 57 88" fill="none" xmlns="http://www.w3.org/2000/svg">
<path d="M27.2105 0.504902C26.9793 0.841422 26.8408 1.51446 26.7951 2.52402C26.7716 3.0288 26.7494 3.53358 26.7259 4.03836C26.4489 3.8701 26.172 3.70184 25.895 3.53358C25.3411 3.19706 24.7872 3.0288 24.2333 3.0288C23.6794 3.0288 23.3332 3.25309 23.1947 3.70184C23.0563 4.15059 23.0106 4.57124 23.0563 4.96379C23.102 5.35634 23.2875 5.83319 23.6102 6.394C23.9328 6.95481 24.3261 7.40356 24.7872 7.74008C25.2483 8.0766 25.3868 8.44122 25.2026 8.83377C25.0185 9.22633 24.9257 9.70317 24.9257 10.264C24.9257 10.8248 25.0185 11.2175 25.2026 11.4418C25.3868 11.6661 25.6416 11.7223 25.9643 11.6101C26.1263 11.554 26.2869 11.4978 26.4489 11.4418C26.4489 11.8906 26.4489 12.3391 26.4489 12.7879C26.4489 13.6852 26.5417 14.2741 26.7259 14.5546C26.91 14.8351 27.1413 14.9753 27.4183 14.9753C27.6952 14.9753 27.9486 14.8351 28.1799 14.5546C28.4111 14.2741 28.5953 13.7414 28.7338 12.9561C28.803 12.5636 28.8723 12.1709 28.9415 11.7783C29.1949 12.1429 29.4497 12.5074 29.7031 12.872C30.2113 13.6011 30.6489 14.0217 31.0186 14.134C31.3884 14.2462 31.6875 14.0498 31.9187 13.5451C32.15 13.0403 32.2649 12.5636 32.2649 12.1148C32.2649 11.6661 32.15 11.1894 31.9187 10.6846C31.8038 10.4322 31.6875 10.1799 31.5725 9.92746C31.9187 9.98349 32.2649 10.0397 32.6111 10.0957C33.3035 10.208 33.7425 10.0957 33.9266 9.7592C34.1108 9.42268 34.2036 8.97394 34.2036 8.41312C34.2036 7.85231 34.0416 7.37546 33.7189 6.98291C33.3963 6.59036 32.9116 6.3659 32.2649 6.30987C31.9423 6.28177 31.6182 6.25384 31.2956 6.22574C31.5268 5.91732 31.7567 5.60873 31.988 5.30031C32.4491 4.6833 32.7039 4.12249 32.7496 3.61771C32.7953 3.11293 32.7496 2.74831 32.6111 2.52402C32.4726 2.29973 32.1264 2.1875 31.5725 2.1875C31.0186 2.1875 30.5104 2.43989 30.0493 2.94467C29.818 3.19706 29.5882 3.44945 29.3569 3.70184C29.3112 3.16896 29.2641 2.63625 29.2184 2.10337C29.1257 1.03778 29.0107 0.420772 28.8723 0.252512C28.7338 0.0842521 28.4804 0.00012207 28.1106 0.00012207C27.7409 0.00012207 27.4418 0.168382 27.2105 0.504902ZM27.9722 1.17794C28.0414 1.26207 28.1106 1.3462 28.1799 1.43033C28.3183 1.59859 28.3876 2.49592 28.3876 4.12249C28.3876 4.93569 28.3876 5.74906 28.3876 6.56226C28.3183 6.50623 28.2491 6.45003 28.1799 6.394C28.0414 6.28177 27.9265 6.02938 27.8337 5.63683C27.7409 5.24428 27.6952 4.48711 27.6952 3.36532C27.6952 2.24353 27.7409 1.59859 27.8337 1.43033C27.8794 1.3462 27.9265 1.26207 27.9722 1.17794ZM31.5725 3.36532C31.6653 3.36532 31.7567 3.36532 31.8495 3.36532C31.8038 3.53358 31.7567 3.70184 31.711 3.8701C31.6182 4.20662 31.2028 4.65537 30.4647 5.21618C30.095 5.49667 29.7266 5.77699 29.3569 6.05748C29.4026 5.91732 29.4497 5.77699 29.4954 5.63683C29.5882 5.35634 29.9108 4.90776 30.4647 4.29075C31.0186 3.67374 31.3884 3.36532 31.5725 3.36532ZM23.8179 4.03836C24.1876 4.17852 24.556 4.31885 24.9257 4.45901C25.6638 4.7395 26.2177 5.13205 26.5874 5.63683C26.9571 6.14161 27.1648 6.53416 27.2105 6.81465C27.2341 6.95481 27.2562 7.09514 27.2798 7.2353C27.0485 7.2634 26.8187 7.29133 26.5874 7.31943C26.1263 7.37546 25.733 7.29133 25.4104 7.06704C25.0877 6.84275 24.7637 6.50623 24.441 6.05748C24.1184 5.60873 23.9328 5.16015 23.8871 4.7114C23.8636 4.48711 23.8414 4.26265 23.8179 4.03836ZM29.4954 7.40356C30.0493 7.43166 30.6032 7.45959 31.1571 7.48769C32.2649 7.54372 32.9116 7.65595 33.0958 7.82421C33.2799 7.99247 33.3727 8.18883 33.3727 8.41312C33.3727 8.63741 33.3492 8.80567 33.3035 8.9179C33.2578 9.03013 33.0722 9.08616 32.7496 9.08616C32.4269 9.08616 31.8038 8.80567 30.8802 8.24486C30.419 7.96437 29.9565 7.68405 29.4954 7.40356ZM28.9415 8.41312C29.3569 8.8898 29.7723 9.36665 30.1878 9.84333C31.0186 10.7969 31.4576 11.4699 31.5033 11.8625C31.549 12.255 31.5268 12.5915 31.4341 12.872C31.3413 13.1525 31.1571 13.2366 30.8802 13.1244C30.6032 13.0122 30.2806 12.7038 29.9108 12.199C29.5411 11.6942 29.2877 11.2735 29.1492 10.937C29.0107 10.6005 28.9415 10.0957 28.9415 9.42268C28.9415 9.08616 28.9415 8.74964 28.9415 8.41312ZM27.2798 8.66551C27.3726 8.69361 27.464 8.72154 27.5567 8.74964C27.2562 9.03013 26.9571 9.31045 26.6566 9.59094C26.3561 9.87143 26.057 10.1518 25.7565 10.4322C25.7801 10.264 25.8022 10.0957 25.8258 9.92746C25.8715 9.59094 26.0792 9.28252 26.4489 9.00203C26.8187 8.72154 27.0956 8.60948 27.2798 8.66551ZM27.9722 9.7592C27.9957 10.208 28.0179 10.6565 28.0414 11.1053C28.0871 12.0026 28.0649 12.6196 27.9722 12.9561C27.8794 13.2927 27.7409 13.517 27.5567 13.6292C27.464 13.6852 27.3726 13.7414 27.2798 13.7974C27.2798 13.4609 27.2798 13.1244 27.2798 12.7879C27.2798 12.1148 27.3947 11.4418 27.626 10.7688C27.7409 10.4322 27.8572 10.0957 27.9722 9.7592ZM22.0869 13.7133C21.8557 13.9938 21.7172 14.807 21.6715 16.1531C21.648 16.8261 21.6258 17.4992 21.6023 18.1722C21.371 18.032 21.1411 17.8917 20.9099 17.7516C20.4488 17.4711 20.0098 17.3309 19.5944 17.3309C19.1789 17.3309 18.9255 17.3869 18.8327 17.4992C18.74 17.6114 18.6943 17.9758 18.6943 18.5929C18.6943 19.2099 18.787 19.7146 18.9712 20.1072C19.1554 20.4997 19.5708 20.8925 20.2175 21.285C20.5401 21.4814 20.8642 21.6776 21.1868 21.8739C20.9099 22.3787 20.6329 22.8835 20.356 23.3883C19.8021 24.3978 19.5016 25.2391 19.4559 25.9122C19.4102 26.5852 19.4794 27.0619 19.6636 27.3424C19.8478 27.6229 20.079 27.7911 20.356 27.8472C20.6329 27.9032 20.9791 27.7349 21.3945 27.3424C21.6023 27.146 21.81 26.9498 22.0177 26.7535C22.0869 27.034 22.1562 27.3143 22.2254 27.5948C22.3639 28.1556 22.6173 28.5202 22.987 28.6885C23.3568 28.8567 23.6337 28.8567 23.8179 28.6885C24.0021 28.5202 24.1876 28.1556 24.3718 27.5948C24.4646 27.3143 24.556 27.034 24.6487 26.7535C24.7872 26.9778 24.9257 27.2022 25.0642 27.4265C25.3411 27.8753 25.6416 28.1556 25.9643 28.2678C26.2869 28.38 26.5639 28.2959 26.7951 28.0154C27.0264 27.7349 27.1413 27.3984 27.1413 27.0059C27.1413 26.6133 26.91 26.0244 26.4489 25.2391C26.2177 24.8466 25.9878 24.4539 25.7565 24.0613C25.9643 24.1454 26.172 24.2296 26.3797 24.3137C26.7951 24.482 27.2798 24.5661 27.8337 24.5661C28.3876 24.5661 28.7795 24.3418 29.0107 23.893C29.242 23.4443 29.3569 23.1078 29.3569 22.8835C29.3569 22.6592 29.2641 22.4068 29.08 22.1263C28.8958 21.8458 28.4804 21.5655 27.8337 21.285C27.511 21.1449 27.187 21.0045 26.8643 20.8644C27.0721 20.5559 27.2798 20.2474 27.4875 19.9389C27.9029 19.3219 28.1342 18.7051 28.1799 18.0881C28.2034 17.7797 28.2256 17.4711 28.2491 17.1626C27.9265 17.1626 27.6024 17.1626 27.2798 17.1626C26.6331 17.1626 25.9186 17.3869 25.1334 17.8357C24.7415 18.06 24.3482 18.2844 23.9564 18.5087C24.0021 18.3405 24.0491 18.1722 24.0948 18.0039C24.1876 17.6674 24.2098 17.0225 24.1641 16.069C24.1184 15.1154 23.9799 14.4424 23.7486 14.0498C23.5174 13.6573 23.2404 13.4328 22.9178 13.3768C22.5951 13.3208 22.3182 13.4328 22.0869 13.7133ZM22.7101 14.6387C22.7793 14.6948 22.8485 14.751 22.9178 14.807C23.0563 14.9192 23.149 15.1996 23.1947 15.6483C23.2404 16.0971 23.1947 16.742 23.0563 17.5833C22.987 18.0039 22.9178 18.4246 22.8485 18.8452C22.8028 18.733 22.7558 18.621 22.7101 18.5087C22.6173 18.2844 22.5951 17.5833 22.6408 16.4055C22.6644 15.8166 22.6865 15.2277 22.7101 14.6387ZM19.5251 18.5087C19.7785 18.621 20.0333 18.733 20.2867 18.8452C20.7949 19.0695 21.2561 19.4902 21.6715 20.1072C21.8792 20.4156 22.0869 20.7242 22.2946 21.0326C21.9485 20.8925 21.6023 20.7521 21.2561 20.612C20.5637 20.3315 20.1247 20.0791 19.9405 19.8548C19.7564 19.6305 19.6401 19.35 19.5944 19.0135C19.5708 18.8452 19.5487 18.677 19.5251 18.5087ZM26.7951 18.5929C26.8643 18.621 26.9336 18.6489 27.0028 18.677C26.9336 18.7892 26.8643 18.9013 26.7951 19.0135C26.6566 19.2378 26.1955 19.4902 25.4104 19.7707C25.0185 19.9108 24.6252 20.0512 24.2333 20.1913C24.6252 19.9108 25.0185 19.6305 25.4104 19.35C26.1955 18.7892 26.6566 18.5368 26.7951 18.5929ZM33.442 21.4533C33.1193 21.7338 32.9116 22.1823 32.8188 22.7994C32.7731 23.1078 32.726 23.4164 32.6803 23.7248C32.4962 23.5846 32.3106 23.4443 32.1264 23.3041C31.7567 23.0236 31.3884 22.9676 31.0186 23.1359C30.6489 23.3041 30.4647 23.7529 30.4647 24.482C30.4647 25.211 30.5797 25.7439 30.8109 26.0804C31.0422 26.4169 30.9729 26.7816 30.6032 27.1741C30.2335 27.5667 29.9801 28.0154 29.8416 28.5202C29.7031 29.025 29.7031 29.3615 29.8416 29.5298C29.9801 29.698 30.1642 29.7821 30.3955 29.7821C30.5104 29.7821 30.6267 29.7821 30.7417 29.7821C30.7417 30.1187 30.7417 30.4552 30.7417 30.7917C30.7417 31.4647 30.8566 31.9414 31.0879 32.2219C31.3191 32.5024 31.5961 32.5865 31.9187 32.4743C32.2414 32.3621 32.5183 31.9976 32.7496 31.3806C32.8645 31.0722 32.9808 30.7636 33.0958 30.4552C33.1885 30.5954 33.2799 30.7357 33.3727 30.8758C33.5569 31.1563 33.7425 31.3246 33.9266 31.3806C34.1108 31.4366 34.2493 31.4087 34.3421 31.2965C34.4348 31.1843 34.457 30.7917 34.4113 30.1187C34.3878 29.7821 34.3656 29.4456 34.3421 29.1091C34.5955 29.2774 34.8503 29.4456 35.1037 29.6139C35.6119 29.9504 35.9802 30.0906 36.2115 30.0345C36.4427 29.9785 36.6034 29.8663 36.6961 29.698C36.7889 29.5298 36.7889 29.1372 36.6961 28.5202C36.6505 28.2118 36.6034 27.9032 36.5577 27.5948C36.6726 27.5948 36.7889 27.5948 36.9039 27.5948C37.1351 27.5948 37.3428 27.4825 37.527 27.2582C37.7112 27.034 37.804 26.7254 37.804 26.3328C37.804 25.9403 37.6655 25.5475 37.3885 25.155C37.1116 24.7624 36.8346 24.482 36.5577 24.3137C36.2807 24.1454 35.8653 24.0894 35.3114 24.1454C35.0344 24.1735 34.7575 24.2015 34.4805 24.2296C34.5262 23.7808 34.5733 23.3322 34.619 22.8835C34.7118 21.9862 34.619 21.4533 34.3421 21.285C34.0651 21.1168 33.7646 21.1728 33.442 21.4533ZM24.6487 21.5374C25.1099 21.6776 25.5724 21.8179 26.0335 21.9581C26.9571 22.2385 27.5332 22.4347 27.7644 22.547C27.9957 22.6592 28.1342 22.7994 28.1799 22.9676C28.2034 23.0517 28.2256 23.1359 28.2491 23.22C27.9265 23.1919 27.6024 23.164 27.2798 23.1359C26.6331 23.0798 26.0792 22.9116 25.6181 22.6311C25.1569 22.3506 24.88 22.0982 24.7872 21.8739C24.7415 21.7617 24.6944 21.6496 24.6487 21.5374ZM33.9266 22.2104C33.9723 22.2104 34.0194 22.2104 34.0651 22.2104C34.0416 22.4068 34.0194 22.603 33.9959 22.7994C33.9502 23.1919 33.8338 23.5846 33.6497 23.9772C33.5569 24.1735 33.4655 24.3697 33.3727 24.5661C33.3727 24.3418 33.3727 24.1173 33.3727 23.893C33.3727 23.4443 33.442 23.0517 33.5804 22.7152C33.7189 22.3787 33.8338 22.2104 33.9266 22.2104ZM22.8485 22.4628C22.987 22.4909 23.1255 22.5189 23.264 22.547C22.9635 23.0798 22.6644 23.6126 22.3639 24.1454C21.7643 25.211 21.2796 25.8841 20.9099 26.1646C20.7257 26.3047 20.5401 26.445 20.356 26.5852C20.4252 26.2487 20.4945 25.9122 20.5637 25.5756C20.7022 24.9026 21.0484 24.2015 21.6023 23.4724C22.1562 22.7433 22.5716 22.4068 22.8485 22.4628ZM23.6794 23.893C23.7251 23.9491 23.7722 24.0053 23.8179 24.0613C23.9107 24.1735 23.9328 24.5942 23.8871 25.3233C23.8414 26.0523 23.7722 26.5852 23.6794 26.9217C23.5866 27.2582 23.4717 27.4546 23.3332 27.5106C23.264 27.5387 23.1947 27.5667 23.1255 27.5948C23.102 27.2301 23.0798 26.8657 23.0563 26.5011C23.0106 25.772 23.102 25.155 23.3332 24.6502C23.4481 24.3978 23.5645 24.1454 23.6794 23.893ZM31.1571 23.893C31.272 23.9211 31.3884 23.9491 31.5033 23.9772C31.7346 24.0332 31.9423 24.1735 32.1264 24.3978C32.3106 24.6221 32.4269 24.9026 32.4726 25.2391C32.4962 25.4074 32.5183 25.5756 32.5419 25.7439C32.4034 25.772 32.2649 25.7999 32.1264 25.828C31.8495 25.8841 31.6418 25.8561 31.5033 25.7439C31.3648 25.6317 31.2499 25.4634 31.1571 25.2391C31.0643 25.0148 31.0422 24.7343 31.0879 24.3978C31.1114 24.2296 31.1336 24.0613 31.1571 23.893ZM24.7872 24.3978C25.0406 24.7904 25.2954 25.1831 25.5488 25.5756C26.057 26.3609 26.3104 26.8376 26.3104 27.0059C26.3104 27.09 26.3104 27.1741 26.3104 27.2582C26.2177 27.2582 26.1263 27.2582 26.0335 27.2582C25.8493 27.2582 25.5945 27.034 25.2719 26.5852C24.9492 26.1365 24.7872 25.6598 24.7872 25.155C24.7872 24.9026 24.7872 24.6502 24.7872 24.3978ZM35.3114 25.2391C35.7725 25.2391 36.1658 25.4355 36.4884 25.828C36.6505 26.0244 36.8111 26.2206 36.9731 26.4169C36.4884 26.3609 36.0038 26.3047 35.5191 26.2487C34.5498 26.1365 34.0194 26.0244 33.9266 25.9122C33.8809 25.8561 33.8338 25.7999 33.7882 25.7439C33.9266 25.6598 34.0651 25.5756 34.2036 25.4915C34.4805 25.3233 34.8503 25.2391 35.3114 25.2391ZM31.711 27.5106C31.7567 27.5387 31.8038 27.5667 31.8495 27.5948C31.7346 27.763 31.6182 27.9313 31.5033 28.0995C31.272 28.4361 31.0643 28.6324 30.8802 28.6885C30.7874 28.7166 30.696 28.7445 30.6032 28.7726C30.7652 28.5483 30.9259 28.3238 31.0879 28.0995C31.4105 27.6508 31.6182 27.4546 31.711 27.5106ZM34.3421 27.4265C34.5955 27.5667 34.8503 27.707 35.1037 27.8472C35.6119 28.1276 35.8888 28.38 35.9345 28.6043C35.9581 28.7166 35.9802 28.8286 36.0038 28.9408C35.8418 28.8567 35.6811 28.7726 35.5191 28.6885C35.1965 28.5202 34.9195 28.2678 34.6882 27.9313C34.5733 27.763 34.457 27.5948 34.3421 27.4265ZM32.6803 28.0995C32.6568 28.408 32.6346 28.7166 32.6111 29.025C32.5654 29.642 32.4491 30.1747 32.2649 30.6234C32.0807 31.0722 31.9187 31.3246 31.7802 31.3806C31.711 31.4087 31.6418 31.4366 31.5725 31.4647C31.5725 31.1563 31.5725 30.8477 31.5725 30.5393C31.5725 29.9223 31.7567 29.3615 32.1264 28.8567C32.3106 28.6043 32.4962 28.3519 32.6803 28.0995ZM33.5112 28.9408C33.5569 29.1651 33.604 29.3896 33.6497 29.6139C33.6954 29.8382 33.7425 30.0626 33.7882 30.2869C33.7189 30.2309 33.6497 30.1747 33.5804 30.1187C33.442 30.0064 33.3963 29.7821 33.442 29.4456C33.4655 29.2774 33.4877 29.1091 33.5112 28.9408ZM47.0126 31.0441C46.2275 31.5489 45.7899 31.9135 45.6971 32.1378C45.6043 32.3621 45.5586 32.895 45.5586 33.7363C45.5586 34.5776 45.6043 35.1384 45.6971 35.4189C45.7899 35.6993 46.0197 36.0359 46.3895 36.4284C46.7592 36.821 47.3823 37.1575 48.2589 37.438C49.1354 37.7185 49.6894 37.9709 49.9206 38.1952C50.1519 38.4194 50.2903 39.0925 50.336 40.2143C50.3817 41.3361 50.174 42.654 49.7129 44.1684C49.2518 45.6827 48.8585 46.7483 48.5358 47.3653C48.2132 47.9823 47.4516 48.7114 46.251 49.5527C45.0504 50.394 44.3359 50.7866 44.1046 50.7305C43.8734 50.6745 43.4815 50.3659 42.9276 49.8051C42.3737 49.2443 41.45 48.7114 40.158 48.2066C38.8661 47.7018 37.4578 47.5055 35.9345 47.6177C34.4113 47.7299 33.2342 47.9542 32.4034 48.2908C31.5725 48.6273 30.3955 48.7955 28.8723 48.7955C27.349 48.7955 26.4254 48.6273 26.1027 48.2908C25.7801 47.9542 25.1334 47.5055 24.1641 46.9447C23.1947 46.3839 22.2711 45.6827 21.3945 44.8414C20.518 44.0001 19.5251 43.3271 18.4173 42.8223C17.3095 42.3175 16.3637 42.037 15.5786 41.981C14.7934 41.925 14.0789 42.1774 13.4322 42.7382C12.7855 43.299 12.3936 43.8319 12.2551 44.3366C12.1167 44.8414 12.0474 45.4303 12.0474 46.1034C12.0474 46.7764 12.2551 47.6458 12.6706 48.7114C13.086 49.777 13.5707 50.5342 14.1246 50.9829C14.6785 51.4317 15.4401 51.8523 16.4094 52.2449C17.3787 52.6374 18.1861 53.1984 18.8327 53.9275C19.1554 54.2921 19.4794 54.6565 19.8021 55.0212C19.5708 54.9089 19.3409 54.7969 19.1097 54.6846C18.6486 54.4603 17.9091 54.32 16.8941 54.264C15.879 54.208 15.2559 53.8714 15.0246 53.2544C14.7934 52.6374 14.6092 52.329 14.4707 52.329C14.4015 52.329 14.3323 52.329 14.263 52.329C14.3087 52.5814 14.3558 52.8338 14.4015 53.0862C14.4472 53.3386 14.4943 53.5909 14.54 53.8433C13.7548 53.7873 12.971 53.7311 12.1859 53.6751C10.617 53.5628 9.69332 53.5628 9.41637 53.6751C9.13942 53.7873 8.90816 54.0116 8.72399 54.3481C8.53982 54.6846 8.4235 55.2454 8.3778 56.0307C8.3321 56.816 8.35426 57.3487 8.44704 57.6292C8.53982 57.9097 8.83893 58.3022 9.34713 58.807C9.85534 59.3118 10.1544 59.9567 10.2472 60.742C10.34 61.5273 10.3622 62.8733 10.3165 64.7802C10.2708 66.6871 10.2015 67.837 10.1088 68.2296C10.016 68.6221 9.73902 69.155 9.27789 69.828C8.81677 70.5011 8.58551 71.1181 8.58551 71.6789C8.58551 72.2397 8.72399 72.6885 9.00094 73.025C9.27789 73.3615 9.62408 73.5298 10.0395 73.5298C10.4549 73.5298 10.9396 73.642 11.4935 73.8663C12.0474 74.0906 12.971 74.2028 14.263 74.2028C14.9097 74.2028 15.555 74.2028 16.2017 74.2028C15.8555 74.4271 15.5093 74.6516 15.1631 74.8758C14.4707 75.3246 13.7091 75.689 12.8783 75.9695C12.0474 76.25 11.5171 76.5024 11.2858 76.7267C11.0545 76.951 10.8704 77.2315 10.7319 77.568C10.5934 77.9045 10.5242 78.3533 10.5242 78.9141C10.5242 79.4749 10.5699 79.9797 10.6627 80.4284C10.7554 80.8772 10.9161 81.2697 11.1473 81.6062C11.3786 81.9428 11.6084 82.1671 11.8397 82.2793C12.071 82.3915 12.6249 82.4475 13.5014 82.4475C14.378 82.4475 15.879 81.8586 18.0019 80.6808C20.1247 79.503 22.1797 78.6898 24.1641 78.241C26.1484 77.7923 27.6024 77.3716 28.5261 76.9791C29.4497 76.5865 30.2335 76.3621 30.8802 76.306C31.5268 76.25 31.988 76.1097 32.2649 75.8854C32.5419 75.6611 33.7189 75.5489 35.7961 75.5489C37.8732 75.5489 39.2123 75.4929 39.8119 75.3806C40.4115 75.2684 41.0817 75.0441 41.8198 74.7076C42.5578 74.3711 43.3887 73.8102 44.3123 73.025C45.236 72.2397 46.0433 71.1181 46.7357 69.6598C47.428 68.2015 47.8199 66.5189 47.9127 64.612C48.0055 62.7051 48.1661 61.2468 48.3974 60.2372C48.6286 59.2277 48.8363 58.4986 49.0205 58.0498C49.2047 57.6011 49.5744 57.0403 50.1283 56.3672C50.6822 55.6942 51.2597 54.7969 51.8593 53.6751C52.4589 52.5533 53.2205 51.3475 54.1441 50.0575C55.0678 48.7674 55.6909 47.6458 56.0136 46.6923C56.3362 45.7388 56.591 44.6451 56.7752 43.4112C56.9593 42.1774 57.0064 40.7751 56.9136 39.2047C56.8209 37.6343 56.429 36.2321 55.7366 34.9982C55.0442 33.7644 54.4903 32.9231 54.0749 32.4743C53.6595 32.0256 53.1748 31.633 52.6209 31.2965C52.067 30.96 51.5366 30.7076 51.0284 30.5393C50.5202 30.3711 49.9206 30.2869 49.2282 30.2869C48.5358 30.2869 47.7978 30.5393 47.0126 31.0441ZM35.5883 33.8204C35.4042 34.7177 35.3349 35.5311 35.3806 36.2602C35.4263 36.9892 35.5191 37.5502 35.6576 37.9428C35.7268 38.1391 35.7961 38.3353 35.8653 38.5317C35.6576 38.5598 35.4499 38.5877 35.2421 38.6158C34.8267 38.6718 34.4805 38.8682 34.2036 39.2047C34.0651 39.373 33.9266 39.5412 33.7882 39.7095C33.7882 39.4011 33.7882 39.0925 33.7882 38.7841C33.7882 38.167 33.6732 37.6904 33.442 37.3539C33.2107 37.0173 32.8424 36.6808 32.3342 36.3443C31.8259 36.0078 31.0879 35.8676 30.1185 35.9236C29.6339 35.9517 29.1492 35.9797 28.6645 36.0078C28.6645 35.6152 28.6645 35.2225 28.6645 34.8299C28.6645 34.0447 28.5496 33.568 28.3183 33.3997C28.0871 33.2315 27.8101 33.1754 27.4875 33.2315C27.1648 33.2875 26.91 33.4278 26.7259 33.6521C26.5417 33.8764 26.3797 34.4374 26.2412 35.3347C26.172 35.7835 26.1027 36.2321 26.0335 36.6808C25.7801 36.2321 25.5253 35.7835 25.2719 35.3347C24.7637 34.4374 24.3261 33.9887 23.9564 33.9887C23.7722 33.9887 23.5866 33.9887 23.4024 33.9887C23.426 34.3252 23.4481 34.6617 23.4717 34.9982C23.5174 35.6712 23.7029 36.2602 24.0256 36.7649C24.1876 37.0173 24.3482 37.2697 24.5103 37.5221C24.1184 37.5221 23.7251 37.5221 23.3332 37.5221C22.5481 37.5221 22.0869 37.6623 21.9485 37.9428C21.81 38.2233 21.7643 38.5317 21.81 38.8682C21.8557 39.2047 22.0177 39.5412 22.2946 39.8778C22.5716 40.2143 23.0106 40.4106 23.6102 40.4667C23.9107 40.4948 24.2098 40.5227 24.5103 40.5508C24.4646 40.691 24.4175 40.8313 24.3718 40.9714C24.279 41.2519 24.279 41.8127 24.3718 42.654C24.4646 43.4953 24.603 44.0001 24.7872 44.1684C24.9714 44.3366 25.1791 44.4208 25.4104 44.4208C25.6416 44.4208 25.8493 44.3366 26.0335 44.1684C26.1263 44.0843 26.2177 44.0001 26.3104 43.916C26.4032 44.1124 26.4946 44.3085 26.5874 44.5049C26.7716 44.8975 26.9571 45.0938 27.1413 45.0938C27.3255 45.0938 27.511 44.9537 27.6952 44.6732C27.8794 44.3927 28.1342 44.3927 28.4568 44.6732C28.7795 44.9537 29.1257 45.0938 29.4954 45.0938C29.8651 45.0938 30.1642 44.9256 30.3955 44.589C30.6267 44.2525 30.7417 43.7758 30.7417 43.1588C30.7417 42.5418 30.5797 42.0091 30.257 41.5604C30.095 41.3361 29.9344 41.1116 29.7723 40.8873C30.2113 40.8873 30.6489 40.8873 31.0879 40.8873C31.9644 40.8873 32.4962 40.8592 32.6803 40.8032C32.8645 40.7472 33.0265 40.6068 33.165 40.3825C33.2342 40.2703 33.3035 40.1582 33.3727 40.046C33.442 40.2703 33.5112 40.4948 33.5804 40.7191C33.7189 41.1678 33.9959 41.4202 34.4113 41.4762C34.619 41.5043 34.8267 41.5323 35.0344 41.5604C34.9652 41.7567 34.896 41.9529 34.8267 42.1493C34.6882 42.5418 34.619 42.9906 34.619 43.4953C34.619 44.0001 34.6882 44.3647 34.8267 44.589C34.9652 44.8133 35.1965 44.9256 35.5191 44.9256C35.8418 44.9256 36.1187 44.7854 36.35 44.5049C36.5812 44.2244 36.7889 43.7758 36.9731 43.1588C37.0659 42.8504 37.1573 42.5418 37.2501 42.2334C37.4121 42.4298 37.5727 42.6259 37.7347 42.8223C38.0574 43.2149 38.4271 43.4672 38.8425 43.5795C39.258 43.6917 39.5349 43.6355 39.6734 43.4112C39.8119 43.1869 39.8354 42.8504 39.7426 42.4017C39.6969 42.1774 39.6498 41.9529 39.6041 41.7286C39.9739 41.7567 40.3422 41.7846 40.712 41.8127C41.45 41.8688 41.9125 41.7567 42.0967 41.4762C42.2809 41.1957 42.3501 40.8313 42.3044 40.3825C42.2587 39.9338 41.8655 39.5973 41.1274 39.373C40.7576 39.2607 40.3893 39.1487 40.0196 39.0364C40.2273 38.7841 40.435 38.5317 40.6427 38.2793C41.0581 37.7745 41.3116 37.1575 41.4043 36.4284C41.4971 35.6993 41.4971 35.2787 41.4043 35.1665C41.3116 35.0542 41.0124 34.9982 40.5042 34.9982C39.996 34.9982 39.4421 35.2787 38.8425 35.8395C38.542 36.12 38.2429 36.4003 37.9424 36.6808C37.8275 36.0919 37.7112 35.503 37.5962 34.9141C37.365 33.7363 37.1573 33.0351 36.9731 32.8108C36.7889 32.5865 36.5577 32.4743 36.2807 32.4743C36.0038 32.4743 35.7725 32.9231 35.5883 33.8204ZM49.159 32.4743C49.6201 32.4743 50.1519 32.6145 50.7515 32.895C51.3511 33.1754 52.0434 33.8204 52.8286 34.8299C53.6138 35.8395 54.1206 36.6527 54.3518 37.2697C54.5831 37.8867 54.6745 38.8401 54.6288 40.1301C54.5831 41.4202 54.3283 42.9625 53.8672 44.7573C53.4061 46.5521 52.7829 47.9823 51.9977 49.0479C51.2126 50.1135 50.1519 51.7961 48.8128 54.0957C47.4737 56.3953 46.69 58.0498 46.4587 59.0594C46.2275 60.069 46.089 61.4711 46.0433 63.2659C45.9976 65.0607 45.6971 66.6311 45.1432 67.9772C44.5893 69.3233 43.9661 70.3609 43.2738 71.09C42.5814 71.8191 41.7962 72.408 40.9197 72.8567C40.0431 73.3055 38.7733 73.698 37.1116 74.0345C35.4499 74.3711 34.3656 74.5393 33.8574 74.5393C33.3492 74.5393 32.9116 74.4271 32.5419 74.2028C32.1721 73.9785 31.5033 73.9223 30.534 74.0345C29.5646 74.1468 28.803 74.343 28.2491 74.6235C27.6952 74.9039 26.1484 75.4087 23.6102 76.1378C21.0719 76.8669 19.2482 77.6521 18.1404 78.4934C17.0326 79.3347 16.156 79.9236 15.5093 80.2602C14.8626 80.5967 14.1938 80.7649 13.5014 80.7649C12.809 80.7649 12.3936 80.5967 12.2551 80.2602C12.1167 79.9236 12.0474 79.503 12.0474 78.9982C12.0474 78.4934 12.1167 78.1569 12.2551 77.9886C12.3936 77.8204 12.5778 77.6802 12.809 77.568C12.924 77.512 13.0403 77.4558 13.1552 77.3997C13.1095 77.568 13.0624 77.7363 13.0167 77.9045C12.924 78.241 12.971 78.7458 13.1552 79.4189C13.3394 80.0919 13.6399 80.4284 14.0553 80.4284C14.4707 80.4284 14.7242 80.3443 14.8169 80.176C14.9097 80.0078 14.8862 79.8395 14.7477 79.6712C14.6092 79.503 14.4472 79.4189 14.263 79.4189C14.0789 79.4189 13.9625 79.2506 13.9168 78.9141C13.8711 78.5776 13.8933 78.2971 13.9861 78.0728C14.0318 77.9605 14.0789 77.8485 14.1246 77.7363C13.9861 77.6521 13.8476 77.568 13.7091 77.4839C13.5707 77.3997 13.4322 77.3156 13.2937 77.2315C13.525 77.1192 13.7548 77.0072 13.9861 76.895C14.4472 76.6707 15.2088 76.1097 16.2709 75.2124C17.333 74.315 17.9091 73.8663 18.0019 73.8663C18.0947 73.8663 18.1639 74.0345 18.2096 74.3711C18.2553 74.7076 18.3481 74.8758 18.4865 74.8758C18.625 74.8758 18.7178 74.7636 18.7635 74.5393C18.8092 74.315 18.7635 74.0345 18.625 73.698C18.4865 73.3615 18.625 73.025 19.0405 72.6885C19.4559 72.3519 19.7328 72.2118 19.8713 72.2678C20.0098 72.3238 20.1483 72.5202 20.2867 72.8567C20.4252 73.1932 20.5872 73.3615 20.7714 73.3615C20.8642 73.3615 20.9556 73.3615 21.0484 73.3615C20.9334 73.0531 20.8171 72.7445 20.7022 72.4361C20.4709 71.8191 20.6786 70.9217 21.3253 69.7439C21.972 68.5661 22.4096 67.1919 22.6408 65.6215C22.8721 64.0512 22.8942 62.4527 22.7101 60.8261C22.5259 59.1996 22.2254 58.0498 21.81 57.3768C21.3945 56.7038 21.1868 56.3112 21.1868 56.199C21.1868 56.1429 21.1868 56.0867 21.1868 56.0307C21.2561 56.0307 21.3253 56.0307 21.3945 56.0307C21.533 56.0307 21.7172 55.8906 21.9485 55.6101C22.1797 55.3296 22.2711 55.0493 22.2254 54.7688C22.1797 54.4883 21.7864 53.8994 21.0484 53.002C20.3103 52.1047 19.0862 51.2634 17.3787 50.4781C15.6713 49.6929 14.702 49.104 14.4707 48.7114C14.3558 48.515 14.2395 48.3189 14.1246 48.1225C14.2866 48.1506 14.4472 48.1785 14.6092 48.2066C14.9319 48.2627 15.1396 48.0944 15.2324 47.7018C15.3251 47.3093 15.4401 47.0569 15.5786 46.9447C15.717 46.8324 15.7406 46.6082 15.6478 46.2716C15.6021 46.1034 15.555 45.9351 15.5093 45.7669C15.6478 45.8229 15.7863 45.8791 15.9247 45.9351C16.0632 45.9911 16.2017 46.0473 16.3402 46.1034C16.3637 45.9911 16.3859 45.8791 16.4094 45.7669C16.4551 45.5426 16.3859 45.2621 16.2017 44.9256C16.0175 44.589 15.8098 44.4208 15.5786 44.4208C15.3473 44.4208 15.2088 44.6171 15.1631 45.0097C15.1174 45.4022 15.0011 45.6827 14.8169 45.851C14.6328 46.0192 14.5635 46.1875 14.6092 46.3558C14.6549 46.524 14.5164 46.7204 14.1938 46.9447C14.0318 47.0569 13.8711 47.169 13.7091 47.2812C13.6856 47.0007 13.6634 46.7204 13.6399 46.4399C13.5942 45.8791 13.6163 45.4022 13.7091 45.0097C13.8019 44.6171 13.9625 44.3085 14.1938 44.0843C14.425 43.86 14.7242 43.7477 15.0939 43.7477C15.4636 43.7477 16.0868 43.9441 16.9633 44.3366C17.8399 44.7292 18.5322 45.0938 19.0405 45.4303C19.5487 45.7669 20.0333 46.2156 20.4945 46.7764C20.9556 47.3372 21.6258 47.8701 22.5024 48.3749C23.3789 48.8797 24.1876 49.4405 24.9257 50.0575C25.6638 50.6745 26.8408 51.0389 28.4568 51.1512C30.0728 51.2634 31.3413 51.1512 32.2649 50.8147C33.1885 50.4781 34.4113 50.2538 35.9345 50.1416C37.4578 50.0294 38.7041 50.1697 39.6734 50.5623C40.6427 50.9548 41.4279 51.4317 42.0275 51.9925C42.6271 52.5533 43.0896 52.8898 43.4122 53.002C43.7349 53.1143 44.1046 53.1422 44.52 53.0862C44.9355 53.0301 45.4894 52.8057 46.1818 52.4131C46.8741 52.0206 47.6593 51.4596 48.5358 50.7305C49.4124 50.0015 50.0826 49.1321 50.5438 48.1225C51.0049 47.1129 51.4203 45.907 51.79 44.5049C52.1598 43.1028 52.3439 41.8127 52.3439 40.6349C52.3439 39.4571 52.2512 38.5598 52.067 37.9428C51.8828 37.3258 51.5588 36.8491 51.0977 36.5126C50.6365 36.176 50.0355 35.9236 49.2975 35.7554C48.5594 35.5871 48.0512 35.3347 47.7742 34.9982C47.4973 34.6617 47.3823 34.241 47.428 33.7363C47.4737 33.2315 47.6593 32.895 47.9819 32.7267C48.3046 32.5584 48.6979 32.4743 49.159 32.4743ZM36.2807 33.6521C36.4192 33.9605 36.5577 34.2691 36.6961 34.5776C36.9731 35.1946 37.1116 36.0638 37.1116 37.1856C37.1116 37.7464 37.1116 38.3074 37.1116 38.8682C36.9496 38.5317 36.7889 38.1952 36.6269 37.8586C36.3043 37.1856 36.1658 36.3162 36.2115 35.2506C36.235 34.7177 36.2572 34.185 36.2807 33.6521ZM27.626 34.4934C27.6952 34.4934 27.7644 34.4934 27.8337 34.4934C27.8337 34.7739 27.8337 35.0542 27.8337 35.3347C27.8337 35.8955 27.6717 36.4565 27.349 37.0173C27.187 37.2978 27.0264 37.5781 26.8643 37.8586C26.8643 37.5221 26.8643 37.1856 26.8643 36.8491C26.8643 36.176 26.9571 35.6152 27.1413 35.1665C27.3255 34.7177 27.4875 34.4934 27.626 34.4934ZM8.65475 35.0823C8.4235 35.3628 8.30856 35.9517 8.30856 36.8491C8.30856 37.2978 8.30856 37.7464 8.30856 38.1952C8.12439 38.0829 7.93883 37.9709 7.75466 37.8586C7.38493 37.6343 7.01658 37.5781 6.64685 37.6904C6.27712 37.8026 6.0694 38.1391 6.02371 38.6999C5.97801 39.2607 6.0694 39.7936 6.30066 40.2984C6.41559 40.5508 6.53191 40.8032 6.64685 41.0556C6.48483 41.1397 6.3242 41.2238 6.16218 41.308C5.83953 41.4762 5.53904 41.7567 5.26209 42.1493C4.98514 42.5418 4.8702 42.9625 4.9159 43.4112C4.9616 43.86 5.12361 44.1965 5.40057 44.4208C5.67752 44.6451 6.02371 44.7292 6.43914 44.6732C6.85456 44.6171 7.24645 44.4489 7.61618 44.1684C7.80035 44.0282 7.98591 43.8879 8.17009 43.7477C8.14654 44.2244 8.12439 44.7013 8.10085 45.1779C8.05515 46.1315 8.10085 46.6923 8.23932 46.8605C8.3778 47.0288 8.58551 47.0007 8.86247 46.7764C9.13942 46.5521 9.34713 46.1594 9.48561 45.5986C9.55485 45.3181 9.62408 45.0378 9.69332 44.7573C9.76256 44.8414 9.8318 44.9256 9.90104 45.0097C10.0395 45.1779 10.2237 45.206 10.4549 45.0938C10.6862 44.9816 10.8468 44.7573 10.9396 44.4208C11.0324 44.0843 11.0545 43.4393 11.0088 42.4858C10.9631 41.5323 11.193 40.9714 11.7012 40.8032C12.2094 40.6349 12.6706 40.2424 13.086 39.6254C13.5014 39.0084 13.6634 38.5317 13.5707 38.1952C13.4779 37.8586 13.2245 37.6904 12.809 37.6904C12.3936 37.6904 11.9089 37.8026 11.355 38.0269C11.0781 38.1391 10.8011 38.2512 10.5242 38.3634C10.4785 37.9147 10.4314 37.4661 10.3857 37.0173C10.2929 36.12 10.1544 35.5311 9.97027 35.2506C9.7861 34.9701 9.57839 34.8018 9.34713 34.7458C9.11588 34.6898 8.88601 34.8018 8.65475 35.0823ZM24.0948 34.9982C24.3482 35.4749 24.603 35.9517 24.8564 36.4284C25.1099 36.9051 25.3647 37.382 25.6181 37.8586C25.4104 37.6062 25.2026 37.3539 24.9949 37.1015C24.5795 36.5967 24.3261 36.12 24.2333 35.6712C24.1876 35.447 24.1405 35.2225 24.0948 34.9982ZM9.00094 35.8395C9.07018 35.8395 9.13942 35.8395 9.20866 35.8395C9.34713 35.8395 9.48561 36.0919 9.62408 36.5967C9.76256 37.1015 9.7861 37.7745 9.69332 38.6158C9.64762 39.0364 9.60054 39.4571 9.55485 39.8778C9.46207 39.7655 9.37067 39.6535 9.27789 39.5412C9.09372 39.3169 9.00094 38.6439 9.00094 37.5221C9.00094 36.9613 9.00094 36.4003 9.00094 35.8395ZM40.5042 36.0078C40.5735 36.0078 40.6427 36.0078 40.712 36.0078C40.712 36.0638 40.712 36.12 40.712 36.176C40.712 36.2883 40.5735 36.5686 40.2965 37.0173C40.0196 37.4661 39.6041 37.8026 39.0502 38.0269C38.7733 38.1391 38.4963 38.2512 38.2194 38.3634C38.2429 38.2512 38.2651 38.1391 38.2886 38.0269C38.3343 37.8026 38.5199 37.494 38.8425 37.1015C39.1652 36.7089 39.4892 36.4284 39.8119 36.2602C40.1345 36.0919 40.3658 36.0078 40.5042 36.0078ZM30.3263 37.0173C30.8802 37.0173 31.3191 37.1015 31.6418 37.2697C31.9644 37.438 32.2414 37.6343 32.4726 37.8586C32.7039 38.0829 32.8188 38.3634 32.8188 38.6999C32.8188 39.0364 32.6803 39.2888 32.4034 39.4571C32.1264 39.6254 31.6875 39.7095 31.0879 39.7095C30.4883 39.7095 29.8651 39.6254 29.2184 39.4571C28.5718 39.2888 28.2491 38.9804 28.2491 38.5317C28.2491 38.0829 28.4568 37.7185 28.8723 37.438C29.2877 37.1575 29.7723 37.0173 30.3263 37.0173ZM24.0948 38.8682C24.4646 38.9804 24.8329 39.0925 25.2026 39.2047C24.88 39.2328 24.556 39.2607 24.2333 39.2888C23.5866 39.3449 23.1712 39.3169 22.987 39.2047C22.8942 39.1487 22.8028 39.0925 22.7101 39.0364C22.7558 38.9523 22.8028 38.8682 22.8485 38.7841C22.9413 38.6158 23.3568 38.6439 24.0948 38.8682ZM6.64685 38.6999C6.80887 38.728 6.9695 38.756 7.13152 38.7841C7.45416 38.8401 7.75466 39.0925 8.03161 39.5412C8.17009 39.7655 8.30856 39.99 8.44704 40.2143C8.30856 40.2424 8.17009 40.2703 8.03161 40.2984C7.75466 40.3544 7.5234 40.3265 7.33923 40.2143C7.15506 40.102 6.99304 39.8217 6.85456 39.373C6.78533 39.1487 6.71609 38.9242 6.64685 38.6999ZM12.3244 38.8682C12.1859 39.0364 12.0474 39.2047 11.9089 39.373C11.632 39.7095 11.355 39.8778 11.0781 39.8778C10.9396 39.8778 10.8011 39.8778 10.6627 39.8778C10.7084 39.7936 10.7554 39.7095 10.8011 39.6254C10.8939 39.4571 11.1709 39.2888 11.632 39.1206C11.8632 39.0364 12.0931 38.9523 12.3244 38.8682ZM35.7268 39.5412C36.0965 39.5412 36.3264 39.5973 36.4192 39.7095C36.4649 39.7655 36.512 39.8217 36.5577 39.8778C36.4427 39.99 36.3264 40.102 36.2115 40.2143C35.9802 40.4386 35.634 40.5789 35.1729 40.6349C34.7118 40.691 34.4348 40.663 34.3421 40.5508C34.2964 40.4948 34.2493 40.4386 34.2036 40.3825C34.3656 40.2424 34.5262 40.102 34.6882 39.9619C35.0109 39.6814 35.3571 39.5412 35.7268 39.5412ZM38.6348 39.7095C39.0502 39.8778 39.4657 40.046 39.8811 40.2143C40.2965 40.3825 40.712 40.5508 41.1274 40.7191C40.8047 40.6349 40.4807 40.5508 40.158 40.4667C39.5114 40.2984 39.0959 40.1301 38.9118 39.9619C38.819 39.8778 38.7276 39.7936 38.6348 39.7095ZM26.3104 40.046C26.3104 40.2143 26.3104 40.3825 26.3104 40.5508C26.3104 40.8873 26.1263 41.3921 25.7565 42.0651C25.5724 42.4017 25.3868 42.7382 25.2026 43.0747C25.2026 42.8223 25.2026 42.5699 25.2026 42.3175C25.2026 41.8127 25.3868 41.308 25.7565 40.8032C25.9407 40.5508 26.1263 40.2984 26.3104 40.046ZM9.97027 40.7191C10.016 40.8032 10.0631 40.8873 10.1088 40.9714C10.2015 41.1397 10.2472 41.6445 10.2472 42.4858C10.2472 42.9064 10.2472 43.3271 10.2472 43.7477C10.2015 43.6636 10.1544 43.5795 10.1088 43.4953C10.016 43.3271 9.97027 42.8223 9.97027 41.981C9.97027 41.5604 9.97027 41.1397 9.97027 40.7191ZM37.6655 40.7191C37.8967 41.0556 38.1266 41.3921 38.3579 41.7286C38.5891 42.0651 38.819 42.4017 39.0502 42.7382C38.8661 42.6259 38.6805 42.5139 38.4963 42.4017C38.1266 42.1774 37.8967 41.8408 37.804 41.3921C37.7583 41.1678 37.7112 40.9433 37.6655 40.7191ZM28.3876 41.0556C28.6645 41.3361 28.9415 41.6164 29.2184 41.8969C29.7723 42.4577 30.0493 42.8783 30.0493 43.1588C30.0493 43.4393 29.9565 43.7196 29.7723 44.0001C29.5882 44.2806 29.2641 44.2806 28.803 44.0001C28.3419 43.7196 28.1563 43.1588 28.2491 42.3175C28.2948 41.8969 28.3419 41.4762 28.3876 41.0556ZM36.6269 41.308C36.6961 41.3361 36.7654 41.364 36.8346 41.3921C36.7418 41.6726 36.6505 41.9529 36.5577 42.2334C36.3735 42.7942 36.1422 43.2149 35.8653 43.4953C35.7268 43.6355 35.5883 43.7758 35.4499 43.916C35.4499 43.6917 35.4499 43.4672 35.4499 43.243C35.4499 42.7942 35.6119 42.3456 35.9345 41.8969C36.2572 41.4481 36.4884 41.2519 36.6269 41.308ZM8.30856 41.4762C8.40134 41.5043 8.49273 41.5323 8.58551 41.5604C8.3778 41.8408 8.17009 42.1212 7.96237 42.4017C7.54694 42.9625 7.15506 43.3271 6.78533 43.4953C6.41559 43.6636 6.13864 43.7196 5.95447 43.6636C5.86169 43.6355 5.7703 43.6076 5.67752 43.5795C5.74676 43.4112 5.81599 43.243 5.88523 43.0747C6.02371 42.7382 6.41559 42.3736 7.06228 41.981C7.70896 41.5885 8.12439 41.4202 8.30856 41.4762ZM9.00094 42.4017C9.04664 42.5418 9.09372 42.6821 9.13942 42.8223C9.2322 43.1028 9.16296 43.6636 8.9317 44.5049C8.81677 44.9256 8.70045 45.3462 8.58551 45.7669C8.58551 45.4303 8.58551 45.0938 8.58551 44.7573C8.58551 44.0843 8.65475 43.5234 8.79323 43.0747C8.86247 42.8504 8.9317 42.6259 9.00094 42.4017ZM16.4786 46.4399C16.2017 46.6642 16.0397 47.0007 15.994 47.4495C15.9483 47.8982 16.1325 48.3189 16.5479 48.7114C16.9633 49.104 17.3095 49.3003 17.5865 49.3003C17.8634 49.3003 18.1404 49.1321 18.4173 48.7955C18.6943 48.459 18.8327 48.0944 18.8327 47.7018C18.8327 47.3093 18.6943 46.9728 18.4173 46.6923C18.1404 46.4118 17.8177 46.2435 17.448 46.1875C17.0782 46.1315 16.7556 46.2156 16.4786 46.4399ZM15.0939 46.4399C15.1174 46.4959 15.1396 46.5521 15.1631 46.6082C15.1867 46.6642 15.2088 46.7204 15.2324 46.7764C15.1867 46.7764 15.1396 46.7764 15.0939 46.7764C15.0482 46.7764 15.0011 46.7764 14.9554 46.7764C14.979 46.7204 15.0011 46.6642 15.0246 46.6082C15.0482 46.5521 15.0703 46.4959 15.0939 46.4399ZM14.54 47.2812C14.6092 47.3653 14.6785 47.4495 14.7477 47.5336C14.8169 47.6177 14.8862 47.7018 14.9554 47.786C14.8862 47.786 14.8169 47.786 14.7477 47.786C14.6785 47.786 14.6092 47.786 14.54 47.786C14.54 47.7018 14.54 47.6177 14.54 47.5336C14.54 47.4495 14.54 47.3653 14.54 47.2812ZM17.5865 47.5336C17.8634 47.7018 17.9562 47.9261 17.8634 48.2066C17.7706 48.4871 17.61 48.6273 17.3787 48.6273C17.1475 48.6273 16.9398 48.5431 16.7556 48.3749C16.6628 48.2908 16.5714 48.2066 16.4786 48.1225C16.5936 47.9823 16.7099 47.842 16.8248 47.7018C17.0561 47.4214 17.3095 47.3653 17.5865 47.5336ZM35.7268 52.8338C34.1579 53.3946 32.9573 53.9835 32.1264 54.6005C31.2956 55.2175 30.8109 55.7502 30.6724 56.199C30.534 56.6477 30.4883 57.1525 30.534 57.7133C30.5797 58.2741 30.7652 58.9192 31.0879 59.6483C31.4105 60.3774 31.7567 60.8261 32.1264 60.9944C32.4962 61.1626 32.9573 61.2468 33.5112 61.2468C34.0651 61.2468 35.5191 61.0504 37.8732 60.6579C40.2273 60.2653 41.4043 60.0129 41.4043 59.9007C41.4043 59.8447 41.4043 59.7885 41.4043 59.7324C40.2037 59.7324 39.0045 59.7324 37.804 59.7324C35.4042 59.7324 33.9502 59.6202 33.442 59.3959C32.9338 59.1716 32.6346 58.9192 32.5419 58.6387C32.4491 58.3583 32.4269 57.9376 32.4726 57.3768C32.5183 56.816 33.3492 56.1709 34.9652 55.4418C36.5812 54.7127 37.8497 54.3481 38.7733 54.3481C39.6969 54.3481 40.3201 54.208 40.6427 53.9275C40.9654 53.647 41.1274 53.3946 41.1274 53.1703C41.1274 52.946 40.9654 52.7215 40.6427 52.4973C40.3201 52.273 39.8119 52.1326 39.1195 52.0766C38.4271 52.0206 37.2957 52.273 35.7268 52.8338ZM9.97027 55.3577C10.3857 55.3577 10.8011 55.3577 11.2166 55.3577C12.0474 55.3577 12.9018 55.4699 13.7784 55.6942C14.6549 55.9185 15.2324 56.4514 15.5093 57.2927C15.7863 58.134 15.9483 58.807 15.994 59.3118C16.0397 59.8166 16.1089 60.069 16.2017 60.069C16.2474 60.069 16.2945 60.069 16.3402 60.069C16.3402 59.9007 16.3402 59.7324 16.3402 59.5642C16.3402 59.2277 16.2252 58.5827 15.994 57.6292C15.879 57.1525 15.7627 56.6757 15.6478 56.199C15.832 56.199 16.0175 56.199 16.2017 56.199C16.3859 56.199 16.5714 56.199 16.7556 56.199C16.7556 56.7319 16.7556 57.2646 16.7556 57.7974C16.7556 58.3303 16.7556 58.863 16.7556 59.3959C16.8248 59.3399 16.8941 59.2837 16.9633 59.2277C17.1018 59.1154 17.1946 58.5827 17.2403 57.6292C17.2638 57.1525 17.286 56.6757 17.3095 56.199C17.5629 56.2831 17.8177 56.3672 18.0711 56.4514C18.5793 56.6196 18.787 57.2366 18.6943 58.3022C18.6486 58.8351 18.6015 59.3678 18.5558 59.9007C18.6015 59.9007 18.6486 59.9007 18.6943 59.9007C18.787 59.9007 18.8563 59.7885 18.902 59.5642C18.9477 59.3399 18.9948 58.863 19.0405 58.134C19.064 57.7693 19.0862 57.4049 19.1097 57.0403C19.3631 57.3768 19.6179 57.7133 19.8713 58.0498C20.3795 58.7229 20.7022 59.4519 20.8406 60.2372C20.9791 61.0225 21.0484 61.8357 21.0484 62.677C21.0484 63.5183 20.9791 64.4156 20.8406 65.3691C20.7022 66.3227 20.4017 67.3041 19.9405 68.3137C19.7093 68.8185 19.4794 69.3233 19.2482 69.828C19.1097 69.6037 18.9712 69.3793 18.8327 69.155C18.5558 68.7062 18.3481 68.482 18.2096 68.482C18.1404 68.482 18.0711 68.482 18.0019 68.482C18.0019 68.5942 18.0019 68.7062 18.0019 68.8185C18.0019 68.9307 18.0019 69.0428 18.0019 69.155C18.0711 69.155 18.1404 69.155 18.2096 69.155C18.3481 69.155 18.4865 69.2952 18.625 69.5756C18.7635 69.8561 18.7178 70.1927 18.4865 70.5852C18.2553 70.9778 18.0947 71.146 18.0019 71.09C17.9091 71.034 17.8399 70.7254 17.7942 70.1646C17.7485 69.6037 17.6792 69.3233 17.5865 69.3233C17.5408 69.3233 17.4937 69.3233 17.448 69.3233C17.4715 69.6879 17.4937 70.0523 17.5172 70.4169C17.5629 71.146 17.5408 71.5667 17.448 71.6789C17.3552 71.7911 17.2167 71.8753 17.0326 71.9313C16.9398 71.9594 16.8484 71.9873 16.7556 72.0154C16.7791 71.4825 16.8013 70.9498 16.8248 70.4169C16.8484 69.8841 16.8705 69.3514 16.8941 68.8185C16.8248 68.8745 16.7556 68.9307 16.6864 68.9867C16.5479 69.099 16.4551 69.6598 16.4094 70.6693C16.3637 71.6789 15.879 72.2397 14.9554 72.3519C14.0318 72.4642 13.2937 72.4361 12.7398 72.2678C12.1859 72.0995 11.6084 72.0154 11.0088 72.0154C10.4092 72.0154 10.0631 71.9594 9.97027 71.8472C9.87749 71.7349 9.85534 71.4825 9.90104 71.09C9.94673 70.6974 10.0631 70.5011 10.2472 70.5011C10.4314 70.5011 10.6391 70.3888 10.8704 70.1646C11.1016 69.9403 11.3315 69.0709 11.5627 67.5565C11.794 66.0422 11.9089 64.3596 11.9089 62.5087C11.9089 60.6579 11.8854 59.6202 11.8397 59.3959C11.794 59.1716 11.47 58.751 10.8704 58.134C10.2708 57.517 9.97027 56.9001 9.97027 56.2831C9.97027 55.9747 9.97027 55.6661 9.97027 55.3577ZM51.79 57.7974C51.6973 58.2181 51.6059 58.6387 51.5131 59.0594C51.3746 58.9753 51.2361 58.8911 51.0977 58.807C50.8207 58.6387 50.4053 58.5827 49.8514 58.6387C49.5744 58.6668 49.2975 58.6948 49.0205 58.7229C49.0441 58.9753 49.0662 59.2277 49.0898 59.48C49.1354 59.9848 49.3667 60.5456 49.7821 61.1626C50.1976 61.7797 50.2668 62.2844 49.9898 62.677C49.7129 63.0695 49.5744 63.4061 49.5744 63.6865C49.5744 63.967 49.6437 64.1913 49.7821 64.3596C49.9206 64.5278 50.0134 65.0607 50.0591 65.9581C50.1048 66.8554 50.2903 67.4164 50.613 67.6407C50.9356 67.8649 51.2126 67.8089 51.4438 67.4724C51.6751 67.1359 51.9521 67.1078 52.2747 67.3883C52.5974 67.6688 52.8743 67.6688 53.1056 67.3883C53.3368 67.1078 53.4974 66.7433 53.5902 66.2946C53.6359 66.0703 53.683 65.8458 53.7287 65.6215C54.0056 65.8458 54.2826 66.0703 54.5596 66.2946C55.1135 66.7433 55.5746 66.9395 55.9443 66.8835C56.314 66.8275 56.5439 66.4909 56.6367 65.8739C56.7295 65.2569 56.4982 64.5839 55.9443 63.8548C55.6674 63.4902 55.3904 63.1257 55.1135 62.7611C55.3669 62.6489 55.6217 62.5368 55.8751 62.4246C56.3833 62.2003 56.7059 61.9198 56.8444 61.5833C56.9829 61.2468 57.0286 60.8822 56.9829 60.4896C56.9372 60.0971 56.7516 59.7605 56.429 59.48C56.1063 59.1996 55.6909 59.0594 55.1827 59.0594C54.6745 59.0594 54.2369 59.1435 53.8672 59.3118C53.683 59.3959 53.4974 59.48 53.3133 59.5642C53.3133 59.1996 53.3133 58.8351 53.3133 58.4705C53.3133 57.7414 53.244 57.2366 53.1056 56.9561C52.9671 56.6757 52.7594 56.5355 52.4824 56.5355C52.2055 56.5355 51.9742 56.9561 51.79 57.7974ZM52.4824 57.7133C52.506 58.1621 52.5281 58.6106 52.5517 59.0594C52.5752 59.5081 52.5974 59.9567 52.6209 60.4055C52.5517 60.3494 52.4824 60.2932 52.4132 60.2372C52.2747 60.125 52.2512 59.6764 52.3439 58.8911C52.3896 58.4986 52.4367 58.1059 52.4824 57.7133ZM13.2245 59.1435C12.9018 59.6483 12.7398 60.0971 12.7398 60.4896C12.7398 60.8822 12.809 61.1907 12.9475 61.415C13.086 61.6393 13.2245 61.7516 13.3629 61.7516C13.4322 61.7516 13.5014 61.7516 13.5707 61.7516C13.5707 61.4431 13.5707 61.1345 13.5707 60.8261C13.5707 60.2091 13.7327 59.8166 14.0553 59.6483C14.378 59.48 14.54 59.3118 14.54 59.1435C14.54 58.9753 14.4015 58.807 14.1246 58.6387C13.8476 58.4705 13.5471 58.6387 13.2245 59.1435ZM49.8514 59.5642C50.0355 59.6202 50.2211 59.6764 50.4053 59.7324C50.775 59.8447 51.052 60.0129 51.2361 60.2372C51.4203 60.4615 51.5588 60.8261 51.6516 61.3309C51.6973 61.5833 51.7443 61.8357 51.79 62.0881C51.5366 61.8638 51.2818 61.6393 51.0284 61.415C50.5202 60.9663 50.1976 60.5456 50.0591 60.1531C49.9898 59.9567 49.9206 59.7605 49.8514 59.5642ZM55.1827 60.2372C55.5981 60.2372 55.8515 60.3774 55.9443 60.6579C56.0371 60.9384 55.8751 61.1907 55.4596 61.415C55.0442 61.6393 54.536 61.7797 53.9364 61.8357C53.6359 61.8638 53.3368 61.8917 53.0363 61.9198C53.1291 61.7235 53.2205 61.5273 53.3133 61.3309C53.4974 60.9384 53.7522 60.6579 54.0749 60.4896C54.3975 60.3213 54.7673 60.2372 55.1827 60.2372ZM18.625 62.1722C18.3938 63.35 18.2331 63.9389 18.1404 63.9389C18.0947 63.9389 18.0476 63.9389 18.0019 63.9389C18.0254 63.8829 18.0476 63.8267 18.0711 63.7707C18.0947 63.7146 18.1168 63.6584 18.1404 63.6024C18.0711 63.5743 18.0019 63.5464 17.9326 63.5183C17.7942 63.4623 17.6557 63.2378 17.5172 62.8452C17.3787 62.4527 17.2167 62.1722 17.0326 62.0039C16.8484 61.8357 16.5714 61.7797 16.2017 61.8357C15.832 61.8917 15.6021 62.06 15.5093 62.3405C15.4165 62.621 15.3944 63.4623 15.4401 64.8644C15.4636 65.5655 15.4858 66.2665 15.5093 66.9676C15.5786 66.8275 15.6478 66.6871 15.717 66.547C15.8555 66.2665 16.2252 65.8458 16.8248 65.285C17.1253 65.0045 17.4244 64.7242 17.7249 64.4437C17.7485 64.612 17.7706 64.7802 17.7942 64.9485C17.8399 65.285 17.9326 65.5374 18.0711 65.7057C18.2096 65.8739 18.2553 66.3506 18.2096 67.1359C18.1861 67.5284 18.1639 67.9212 18.1404 68.3137C18.2553 68.3137 18.3716 68.3137 18.4865 68.3137C18.7178 68.3137 18.902 68.2015 19.0405 67.9772C19.1789 67.7529 19.2482 67.4724 19.2482 67.1359C19.2482 66.7994 19.1332 66.3506 18.902 65.7898C18.6707 65.229 18.6707 64.7242 18.902 64.2755C19.1332 63.8267 19.2939 63.35 19.3866 62.8452C19.4794 62.3405 19.5251 61.8638 19.5251 61.415C19.5251 60.9663 19.4323 60.686 19.2482 60.5737C19.1554 60.5177 19.064 60.4615 18.9712 60.4055C18.8563 60.9944 18.74 61.5833 18.625 62.1722ZM35.1729 62.5929C34.2493 62.8171 33.3963 63.2378 32.6111 63.8548C31.8259 64.4718 31.4341 65.3131 31.4341 66.3787C31.4341 67.4443 31.5725 68.2296 31.8495 68.7343C32.1264 69.2391 32.6803 69.6598 33.5112 69.9963C34.3421 70.3328 35.1965 70.5571 36.073 70.6693C36.9496 70.7816 37.4121 70.7816 37.4578 70.6693C37.4813 70.6133 37.5035 70.5571 37.527 70.5011C37.3193 70.445 37.1116 70.3888 36.9039 70.3328C36.4884 70.2206 35.8418 69.8561 34.9652 69.2391C34.0886 68.6221 33.5804 68.2296 33.442 68.0613C33.3035 67.8931 33.2107 67.4724 33.165 66.7994C33.1193 66.1263 33.2578 65.6776 33.5804 65.4533C33.9031 65.229 34.457 65.0045 35.2421 64.7802C36.0273 64.5559 36.9731 64.4437 38.0809 64.4437C39.1887 64.4437 39.9046 64.5278 40.2273 64.6961C40.5499 64.8644 40.9432 64.8644 41.4043 64.6961C41.8655 64.5278 42.1424 64.3036 42.2352 64.0231C42.328 63.7426 42.051 63.4061 41.4043 63.0135C40.7576 62.621 39.7883 62.3965 38.4963 62.3405C37.2044 62.2844 36.0965 62.3686 35.1729 62.5929ZM16.2017 62.7611C16.3402 62.9854 16.4786 63.2099 16.6171 63.4342C16.8941 63.8829 16.8484 64.3877 16.4786 64.9485C16.2945 65.229 16.1089 65.5093 15.9247 65.7898C15.9704 65.285 16.0175 64.7802 16.0632 64.2755C16.1089 63.7707 16.156 63.2659 16.2017 62.7611ZM53.4517 63.4342C53.7052 63.5743 53.96 63.7146 54.2134 63.8548C54.7216 64.1353 55.137 64.4997 55.4596 64.9485C55.6217 65.1728 55.7823 65.3972 55.9443 65.6215C55.7366 65.5374 55.5289 65.4533 55.3212 65.3691C54.9057 65.2009 54.4903 64.8363 54.0749 64.2755C53.8672 63.995 53.6595 63.7146 53.4517 63.4342ZM52.3439 63.9389C52.4367 64.0791 52.5281 64.2194 52.6209 64.3596C52.8051 64.6401 52.8521 65.0607 52.7594 65.6215C52.7137 65.902 52.6666 66.1824 52.6209 66.4628C52.5281 66.3787 52.4367 66.2946 52.3439 66.2104C52.1598 66.0422 52.1127 65.6215 52.2055 64.9485C52.2512 64.612 52.2982 64.2755 52.3439 63.9389ZM51.0977 64.612C51.1434 64.612 51.1904 64.612 51.2361 64.612C51.2361 64.8083 51.2361 65.0045 51.2361 65.2009C51.2361 65.5934 51.1669 65.93 51.0284 66.2104C50.9592 66.3506 50.8899 66.4909 50.8207 66.6311C50.8442 66.2946 50.8664 65.9581 50.8899 65.6215C50.9356 64.9485 51.0049 64.612 51.0977 64.612ZM13.086 66.8835C12.8547 67.164 12.7398 67.5005 12.7398 67.8931C12.7398 68.2856 12.8326 68.7343 13.0167 69.2391C13.2009 69.7439 13.4086 69.9963 13.6399 69.9963C13.7548 69.9963 13.8711 69.9963 13.9861 69.9963C13.8933 69.7999 13.8019 69.6037 13.7091 69.4074C13.525 69.0148 13.4322 68.5942 13.4322 68.1454C13.4322 67.6967 13.4779 67.4443 13.5707 67.3883C13.6634 67.3322 13.6634 67.164 13.5707 66.8835C13.525 66.7433 13.4779 66.603 13.4322 66.4628C13.3172 66.603 13.2009 66.7433 13.086 66.8835ZM44.52 75.4648C44.1974 75.7452 43.9204 75.7732 43.6892 75.5489C43.4579 75.3246 43.1117 75.2405 42.6506 75.2965C42.1895 75.3525 41.8655 75.577 41.6813 75.9695C41.4971 76.3621 41.4043 76.7267 41.4043 77.0632C41.4043 77.3997 41.4736 77.7082 41.612 77.9886C41.6813 78.1288 41.7505 78.2691 41.8198 78.4093C41.5663 78.5215 41.3116 78.6336 41.0581 78.7458C40.5499 78.9701 40.2037 79.1946 40.0196 79.4189C39.8354 79.6432 39.7191 79.8955 39.6734 80.176C39.6277 80.4565 39.6498 80.6808 39.7426 80.8491C39.8354 81.0173 40.0653 81.1015 40.435 81.1015C40.6192 81.1015 40.8047 81.1015 40.9889 81.1015C40.9654 81.2978 40.9432 81.494 40.9197 81.6904C40.874 82.0829 40.9654 82.4756 41.1966 82.8682C41.4279 83.2607 41.7048 83.4011 42.0275 83.2888C42.3501 83.1766 42.6271 82.9523 42.8583 82.6158C42.9733 82.4475 43.0896 82.2793 43.2045 82.111C43.343 82.2512 43.4815 82.3915 43.6199 82.5317C43.8969 82.8122 44.1739 82.9523 44.4508 82.9523C44.7278 82.9523 44.959 82.7841 45.1432 82.4475C45.3274 82.111 45.4201 81.7185 45.4201 81.2697C45.4201 81.0454 45.4201 80.821 45.4201 80.5967C45.8591 80.7368 46.2967 80.8772 46.7357 81.0173C47.6122 81.2978 48.2132 81.4099 48.5358 81.3539C48.8585 81.2978 49.0205 80.9613 49.0205 80.3443C49.0205 79.7273 48.7893 79.2225 48.3281 78.8299C47.867 78.4374 47.4516 78.2129 47.0818 78.1569C46.8977 78.1288 46.7121 78.1009 46.5279 78.0728C46.6207 77.9045 46.7121 77.7363 46.8049 77.568C46.9891 77.2315 47.1054 76.8108 47.1511 76.306C47.1968 75.8013 47.1275 75.4648 46.9434 75.2965C46.7592 75.1282 46.3895 75.0441 45.8356 75.0441C45.2817 75.0441 44.8427 75.1843 44.52 75.4648ZM45.9048 76.0537C46.0668 76.0537 46.2275 76.0537 46.3895 76.0537C46.3202 76.2779 46.251 76.5024 46.1818 76.7267C46.0433 77.1754 45.6971 77.568 45.1432 77.9045C44.8662 78.0728 44.5893 78.241 44.3123 78.4093C44.3359 78.1288 44.358 77.8485 44.3816 77.568C44.4273 77.0072 44.6128 76.6145 44.9355 76.3902C45.2581 76.1659 45.5822 76.0537 45.9048 76.0537ZM42.9276 76.306C43.1117 76.3621 43.2973 76.7267 43.4815 77.3997C43.5743 77.7363 43.6656 78.0728 43.7584 78.4093C43.6199 78.3812 43.4815 78.3533 43.343 78.3252C43.066 78.2691 42.8126 78.1288 42.5814 77.9045C42.3501 77.6802 42.2116 77.4558 42.166 77.2315C42.1203 77.0072 42.1895 76.7827 42.3737 76.5584C42.5578 76.3342 42.7434 76.25 42.9276 76.306ZM14.8169 76.895C14.6328 77.1192 14.54 77.4278 14.54 77.8204C14.54 78.2129 14.702 78.4653 15.0246 78.5776C15.3473 78.6898 15.6935 78.7177 16.0632 78.6617C16.433 78.6057 16.6628 78.3252 16.7556 77.8204C16.8484 77.3156 16.8013 76.9791 16.6171 76.8108C16.433 76.6426 16.1325 76.5584 15.717 76.5584C15.3016 76.5584 15.0011 76.6707 14.8169 76.895ZM3.18495 77.8204C3.09217 78.0728 3.00078 78.3252 2.908 78.5776C2.72382 78.4653 2.53827 78.3533 2.35409 78.241C1.98436 78.0167 1.59247 77.9045 1.17705 77.9045C0.761618 77.9045 0.461125 78.0447 0.276952 78.3252C0.0927789 78.6057 0 79.0263 0 79.5871C0 80.1479 0.138476 80.6527 0.415428 81.1015C0.69238 81.5502 1.08427 81.8586 1.59247 82.0269C1.84589 82.111 2.10068 82.1952 2.35409 82.2793C2.26131 82.5036 2.16992 82.728 2.07714 82.9523C1.89297 83.4011 1.82373 83.8778 1.86943 84.3825C1.91512 84.8873 2.03144 85.2524 2.21562 85.4762C2.39979 85.7 2.6075 85.8413 2.83876 85.8969C3.07001 85.9524 3.34697 85.7841 3.66961 85.3921C3.83163 85.1952 3.99226 85 4.15428 84.8032C4.22352 85.1683 4.29276 85.5317 4.36199 85.8969C4.50047 86.6254 4.68464 87.1588 4.9159 87.4953C5.14715 87.8319 5.35487 88.0001 5.53904 88.0001C5.72321 88.0001 5.90877 87.7477 6.09295 87.243C6.27712 86.7382 6.3242 86.1493 6.23142 85.4762C6.18572 85.1397 6.13864 84.8032 6.09295 84.4667C6.34636 84.5794 6.60115 84.6904 6.85456 84.8032C7.36277 85.027 7.70896 85 7.89313 84.719C8.07731 84.4381 8.14654 83.9619 8.10085 83.2888C8.05515 82.6158 7.86959 82.111 7.54694 81.7745C7.38493 81.6062 7.22429 81.438 7.06228 81.2697C7.20075 81.1015 7.33923 80.9332 7.47771 80.7649C7.75466 80.4284 7.91667 79.8955 7.96237 79.1665C7.98591 78.8018 8.00807 78.4374 8.03161 78.0728C7.80035 78.0728 7.57048 78.0728 7.33923 78.0728C6.8781 78.0728 6.3699 78.3533 5.81599 78.9141C5.53904 79.1946 5.26209 79.4749 4.98514 79.7554C4.93944 79.3628 4.89236 78.9701 4.84666 78.5776C4.75388 77.7923 4.66249 77.3437 4.56971 77.2315C4.47693 77.1192 4.26922 77.0632 3.94657 77.0632C3.62392 77.0632 3.36912 77.3156 3.18495 77.8204ZM15.5093 77.3997C15.6243 77.4278 15.7406 77.4558 15.8555 77.4839C15.9704 77.512 16.0868 77.5399 16.2017 77.568C16.1782 77.6802 16.156 77.7923 16.1325 77.9045C16.0868 78.1288 15.9483 78.241 15.717 78.241C15.6021 78.241 15.4858 78.241 15.3708 78.241C15.3944 78.1009 15.4165 77.9605 15.4401 77.8204C15.4636 77.6802 15.4858 77.5399 15.5093 77.3997ZM3.87733 78.241C3.92303 78.2971 3.97011 78.3533 4.0158 78.4093C4.10858 78.5215 4.15428 78.8299 4.15428 79.3347C4.15428 79.5871 4.15428 79.8395 4.15428 80.0919C4.08504 80.0078 4.0158 79.9236 3.94657 79.8395C3.80809 79.6712 3.76239 79.3628 3.80809 78.9141C3.83163 78.6898 3.85379 78.4653 3.87733 78.241ZM13.4322 78.7458C13.4779 78.7739 13.525 78.8018 13.5707 78.8299C13.6634 78.886 13.6856 79.0263 13.6399 79.2506C13.6163 79.3628 13.5942 79.4749 13.5707 79.5871C13.5471 79.447 13.525 79.3066 13.5014 79.1665C13.4779 79.0263 13.4557 78.886 13.4322 78.7458ZM24.7872 79.503C24.5103 80.0078 24.3953 80.4565 24.441 80.8491C24.4646 81.0454 24.4867 81.2416 24.5103 81.438C24.279 81.382 24.0491 81.3258 23.8179 81.2697C23.3568 81.1575 22.9635 81.1296 22.6408 81.1856C22.3182 81.2416 22.0412 81.382 21.81 81.6062C21.5787 81.8305 21.4873 82.1391 21.533 82.5317C21.5787 82.9242 21.8557 83.2047 22.3639 83.373C22.6173 83.4571 22.8721 83.5412 23.1255 83.6254C23.0563 83.7936 22.987 83.9619 22.9178 84.1301C22.7793 84.4667 22.7558 85.027 22.8485 85.8127C22.9413 86.5985 23.1255 87.0192 23.4024 87.0747C23.6794 87.1302 24.0948 86.654 24.6487 85.6445C24.9257 85.1397 25.2026 84.6349 25.4796 84.1301C25.5031 84.4111 25.5253 84.6904 25.5488 84.9714C25.5945 85.5317 25.6873 85.8969 25.8258 86.0651C25.9643 86.2334 26.1484 86.3175 26.3797 86.3175C26.6109 86.3175 26.7951 86.0365 26.9336 85.4762C27.0028 85.1952 27.0721 84.9159 27.1413 84.6349C27.3726 84.8032 27.6024 84.9714 27.8337 85.1397C28.2948 85.4762 28.7338 85.6731 29.1492 85.7286C29.5646 85.7841 29.8416 85.7286 29.9801 85.5603C30.1185 85.3921 30.1878 84.9714 30.1878 84.2984C30.1878 83.6254 30.1185 83.2047 29.9801 83.0365C29.9108 82.9523 29.8416 82.8682 29.7723 82.7841C29.8651 82.728 29.9565 82.6718 30.0493 82.6158C30.2335 82.5036 30.3263 82.2233 30.3263 81.7745C30.3263 81.3258 30.1185 80.9332 29.7031 80.5967C29.2877 80.2602 28.7338 80.0919 28.0414 80.0919C27.349 80.0919 26.9336 79.8955 26.7951 79.503C26.6566 79.1104 26.3561 78.886 25.895 78.8299C25.4339 78.7739 25.0642 78.9982 24.7872 79.503ZM0.969332 78.9141C1.26983 79.0542 1.56893 79.1946 1.86943 79.3347C2.46903 79.6152 2.83876 79.9797 2.97723 80.4284C3.04647 80.6527 3.11571 80.8772 3.18495 81.1015C2.8623 81.0734 2.53827 81.0454 2.21562 81.0173C1.56893 80.9613 1.15351 80.7649 0.969332 80.4284C0.785159 80.0919 0.738077 79.7554 0.830856 79.4189C0.876553 79.2506 0.923635 79.0823 0.969332 78.9141ZM46.4587 79.1665C46.9669 79.2225 47.4045 79.4189 47.7742 79.7554C47.9584 79.9236 48.144 80.0919 48.3281 80.2602C47.8199 80.12 47.3131 79.9797 46.8049 79.8395C46.2967 79.6993 45.7899 79.559 45.2817 79.4189C45.3509 79.3628 45.4201 79.3066 45.4894 79.2506C45.6279 79.1384 45.9505 79.1104 46.4587 79.1665ZM6.99304 79.2506C7.06228 79.2506 7.13152 79.2506 7.20075 79.2506C7.17721 79.3347 7.15506 79.4189 7.13152 79.503C7.08582 79.6712 6.8781 79.8676 6.50837 80.0919C6.3242 80.2041 6.13864 80.3162 5.95447 80.4284C6.09295 80.2321 6.23142 80.0359 6.3699 79.8395C6.64685 79.447 6.85456 79.2506 6.99304 79.2506ZM25.895 79.8395C26.0792 79.8955 26.1263 80.2041 26.0335 80.7649C25.9878 81.0454 25.9407 81.3258 25.895 81.6062C25.7801 81.494 25.6638 81.382 25.5488 81.2697C25.3176 81.0454 25.2026 80.821 25.2026 80.5967C25.2026 80.3724 25.2719 80.176 25.4104 80.0078C25.5488 79.8395 25.7108 79.7835 25.895 79.8395ZM44.1739 80.4284C44.2431 80.4845 44.3123 80.5406 44.3816 80.5967C44.52 80.7089 44.5657 80.9613 44.52 81.3539C44.4965 81.5502 44.4743 81.7464 44.4508 81.9428C44.3359 81.8867 44.2196 81.8305 44.1046 81.7745C43.9897 81.7185 43.8734 81.6623 43.7584 81.6062C43.8277 81.4099 43.8969 81.2137 43.9661 81.0173C44.0354 80.821 44.1046 80.6248 44.1739 80.4284ZM42.6506 80.5967C42.6963 80.6808 42.7434 80.7649 42.7891 80.8491C42.8819 81.0173 42.7434 81.2697 42.3737 81.6062C42.1895 81.7745 42.0039 81.9428 41.8198 82.111C41.8433 81.9709 41.8655 81.8305 41.889 81.6904C41.9347 81.4099 42.0732 81.1575 42.3044 80.9332C42.4194 80.821 42.5357 80.7089 42.6506 80.5967ZM28.1106 81.2697C28.6645 81.2697 29.0343 81.3539 29.2184 81.5221C29.3112 81.6062 29.4026 81.6904 29.4954 81.7745C29.0107 81.8586 28.5261 81.9428 28.0414 82.0269C27.5567 82.111 27.0721 82.1952 26.5874 82.2793C26.6109 82.1671 26.6331 82.055 26.6566 81.9428C26.7023 81.7185 26.8187 81.5502 27.0028 81.438C27.187 81.3258 27.5567 81.2697 28.1106 81.2697ZM4.98514 81.6062C5.28563 81.7185 5.58474 81.8305 5.88523 81.9428C6.48483 82.1671 6.8781 82.4194 7.06228 82.6999C7.24645 82.9804 7.33923 83.2328 7.33923 83.4571C7.33923 83.5693 7.33923 83.6814 7.33923 83.7936C7.13152 83.6814 6.9238 83.5693 6.71609 83.4571C6.30066 83.2328 5.90877 82.8682 5.53904 82.3634C5.35487 82.111 5.16931 81.8586 4.98514 81.6062ZM3.39266 82.2793C3.5076 82.2793 3.62392 82.2793 3.73885 82.2793C3.73885 82.3353 3.73885 82.3915 3.73885 82.4475C3.73885 82.5598 3.66961 82.8963 3.53114 83.4571C3.39266 84.0179 3.23065 84.3825 3.04647 84.5508C2.95369 84.6349 2.8623 84.719 2.76952 84.8032C2.72382 84.6349 2.67674 84.4667 2.63104 84.2984C2.53827 83.9619 2.58535 83.5412 2.76952 83.0365C2.95369 82.5317 3.16141 82.2793 3.39266 82.2793ZM22.5716 82.2793C22.7793 82.3074 22.987 82.3353 23.1947 82.3634C23.4024 82.3915 23.6102 82.4194 23.8179 82.4475C23.6559 82.4756 23.4952 82.5036 23.3332 82.5317C23.0106 82.5877 22.8028 82.5598 22.7101 82.4475C22.6644 82.3915 22.6173 82.3353 22.5716 82.2793ZM26.0335 83.4571C26.1027 83.6254 26.172 83.7936 26.2412 83.9619C26.3797 84.2984 26.4254 84.6349 26.3797 84.9714C26.3561 85.1397 26.334 85.308 26.3104 85.4762C26.2412 85.3635 26.172 85.2524 26.1027 85.1397C25.9643 84.9159 25.9186 84.5794 25.9643 84.1301C25.9878 83.9059 26.01 83.6814 26.0335 83.4571ZM27.5567 83.4571C27.8572 83.5131 28.1563 83.5693 28.4568 83.6254C29.0564 83.7376 29.3569 83.9338 29.3569 84.2143C29.3569 84.3539 29.3569 84.4953 29.3569 84.6349C29.1492 84.5508 28.9415 84.4667 28.7338 84.3825C28.3183 84.2143 28.0179 84.0179 27.8337 83.7936C27.7409 83.6814 27.6495 83.5693 27.5567 83.4571ZM24.5103 83.6254C24.5338 83.6814 24.556 83.7376 24.5795 83.7936C24.6252 83.9059 24.4646 84.2424 24.0948 84.8032C23.9107 85.0842 23.7251 85.3635 23.5409 85.6445C23.5645 85.4476 23.5866 85.2524 23.6102 85.0556C23.6559 84.6635 23.8179 84.327 24.0948 84.046C24.2333 83.9059 24.3718 83.7655 24.5103 83.6254ZM4.84666 83.7936C4.93944 84.0179 5.03083 84.2424 5.12361 84.4667C5.30779 84.9159 5.40057 85.308 5.40057 85.6445C5.40057 85.8127 5.40057 85.981 5.40057 86.1493C5.30779 85.7572 5.21639 85.3635 5.12361 84.9714C5.03083 84.5794 4.93944 84.1862 4.84666 83.7936Z" fill="black"/>
</svg>
