<svg width="101" height="52" viewBox="0 0 101 52" fill="none" xmlns="http://www.w3.org/2000/svg">
<path d="M1.10774 2.27182C1.73563 2.42053 2.29742 2.5362 2.79312 2.61881C3.30535 2.68491 3.73496 2.73448 4.08195 2.76752C4.49503 2.81709 4.85855 2.83362 5.17249 2.81709C5.56905 2.80057 6.06475 2.74274 6.6596 2.6436C7.25444 2.54446 7.88233 2.44532 8.54326 2.34618C9.2042 2.24704 9.85687 2.16442 10.5013 2.09833C11.1457 2.03223 11.7075 2.02397 12.1867 2.07354C12.6658 2.12311 13.1698 2.23877 13.6986 2.42053C14.2273 2.58577 14.723 2.81709 15.1857 3.11451C15.6483 3.39541 16.0449 3.7424 16.3754 4.15549C16.7223 4.56857 16.9371 5.04775 17.0198 5.59302C17.1024 6.12177 17.0528 6.69183 16.8711 7.30319C16.6893 7.89804 16.4001 8.48462 16.0036 9.06294C15.607 9.62473 15.1113 10.1452 14.5165 10.6244C13.9216 11.1036 13.2607 11.4919 12.5337 11.7893C11.9553 12.0041 11.3275 12.1693 10.65 12.285C10.0717 12.3841 9.39422 12.4502 8.61762 12.4833C7.85754 12.4998 7.0479 12.4172 6.18868 12.2354C6.07302 12.7146 6.00692 13.1607 5.9904 13.5738C5.9904 13.9704 6.00692 14.3256 6.03997 14.6396C6.08954 15.0031 6.15563 15.3336 6.23825 15.631C6.33739 15.9284 6.46132 16.2754 6.61003 16.672C6.74221 17.0024 6.89092 17.4072 7.05616 17.8864C7.23792 18.3491 7.45272 18.8696 7.70057 19.4479C7.40315 19.4479 7.11399 19.4561 6.83309 19.4727C6.55219 19.4727 6.29608 19.4809 6.06475 19.4975C5.80038 19.514 5.55253 19.5305 5.3212 19.547C5.05683 19.5636 4.75941 19.5966 4.42894 19.6462C4.14804 19.6792 3.79279 19.7288 3.36318 19.7949C2.9501 19.861 2.47918 19.9436 1.95043 20.0427C2.29742 19.547 2.57006 19.0926 2.76834 18.6795C2.98314 18.2499 3.14011 17.8782 3.23925 17.5642C3.35492 17.2007 3.42927 16.8702 3.46232 16.5728C3.47884 16.325 3.47884 15.8871 3.46232 15.2592C3.46232 14.6313 3.45406 13.9043 3.43754 13.0781C3.42101 12.2519 3.39623 11.3845 3.36318 10.4757C3.33013 9.5669 3.28882 8.71594 3.23925 7.92282C3.18968 7.11317 3.13185 6.41919 3.06576 5.84087C3.01619 5.26256 2.96662 4.88252 2.91705 4.70076C2.85095 4.48596 2.73529 4.25463 2.57006 4.00678C2.43787 3.79197 2.24785 3.54412 2 3.26322C1.76867 2.9658 1.47125 2.63534 1.10774 2.27182ZM6.23825 7.15448C6.22173 7.31972 6.21347 7.49321 6.21347 7.67497C6.21347 8.02196 6.23825 8.46809 6.28782 9.01337C6.40348 9.29426 6.54393 9.52559 6.70917 9.70735C6.89092 9.8891 7.08094 10.0296 7.27922 10.1287C7.49403 10.2278 7.70883 10.2939 7.92364 10.327C8.13844 10.36 8.35324 10.3765 8.56805 10.3765C9.06375 10.36 9.58424 10.2444 10.1295 10.0296C10.8565 9.71561 11.3688 9.26948 11.6662 8.69116C11.9636 8.11284 12.1206 7.518 12.1371 6.90663C12.1536 6.29527 12.0462 5.73347 11.8149 5.22125C11.6001 4.70902 11.3357 4.36203 11.0218 4.18027C10.7574 4.06461 10.4187 4.01504 10.0056 4.03156C9.64207 4.04809 9.18768 4.13896 8.6424 4.3042C8.09713 4.46943 7.42793 4.76685 6.63481 5.19646C6.55219 5.49388 6.4861 5.75826 6.43653 5.98958C6.38696 6.22091 6.34565 6.42745 6.31261 6.60921C6.27956 6.80749 6.25477 6.98925 6.23825 7.15448ZM17.2924 8.6168C17.722 8.69942 18.0938 8.76551 18.4077 8.81508C18.7382 8.84813 19.0191 8.88118 19.2504 8.91422C19.5148 8.94727 19.7461 8.97206 19.9444 8.98858C20.1427 9.0051 20.374 9.02163 20.6384 9.03815C21.0845 9.05467 21.7124 9.05467 22.5221 9.03815C22.0429 9.0051 21.6628 9.12903 21.3819 9.40993C21.1176 9.6743 20.9193 9.97998 20.7871 10.327C20.6219 10.7401 20.531 11.2192 20.5145 11.7645C20.4814 12.4915 20.4979 13.1525 20.564 13.7473C20.6466 14.3256 20.7871 14.8213 20.9854 15.2344C21.2002 15.631 21.4811 15.9284 21.8281 16.1267C22.1751 16.3084 22.6212 16.358 23.1665 16.2754C23.7117 16.1928 24.1248 16.0028 24.4057 15.7053C24.7031 15.3914 24.9179 15.0114 25.0501 14.5652C25.1823 14.1026 25.2567 13.5821 25.2732 13.0038C25.3062 12.4254 25.331 11.8223 25.3476 11.1945C25.3476 10.5666 25.3393 10.1204 25.3228 9.85606C25.3228 9.57516 25.3145 9.3934 25.298 9.31079C25.2815 9.22817 25.2567 9.19512 25.2236 9.21165C25.1906 9.21165 25.1493 9.17034 25.0997 9.08772C25.0667 9.02163 25.0171 8.95553 24.951 8.88944C24.9014 8.82335 24.8353 8.74899 24.7527 8.66637C24.6701 8.56723 24.5792 8.46809 24.4801 8.36895C24.9097 8.38548 25.2897 8.402 25.6202 8.41852C25.9672 8.41852 26.2563 8.42678 26.4877 8.44331C26.752 8.45983 26.9834 8.47635 27.1816 8.49288C27.3634 8.5094 27.603 8.53419 27.9004 8.56723C28.1483 8.60028 28.4705 8.63333 28.867 8.66637C29.2636 8.69942 29.7345 8.74899 30.2798 8.81508C29.8997 8.8977 29.5941 9.02163 29.3627 9.18686C29.1314 9.35209 28.9497 9.51733 28.8175 9.68256C28.6688 9.86432 28.5614 10.0626 28.4953 10.2774C28.4457 10.5583 28.4457 10.9879 28.4953 11.5662C28.5283 12.0785 28.6109 12.7807 28.7431 13.673C28.8753 14.5652 29.0818 15.7384 29.3627 17.1924L27.4047 18.3573L27.0082 15.0609C26.529 15.8706 26.0168 16.4985 25.4715 16.9446C24.9427 17.3742 24.447 17.6881 23.9844 17.8864C23.4391 18.1178 22.9104 18.2499 22.3981 18.283C21.7207 18.283 21.1341 18.2417 20.6384 18.1591C20.1592 18.0599 19.7461 17.936 19.3991 17.7873C19.0521 17.6386 18.7712 17.4733 18.5564 17.2916C18.3582 17.0933 18.2094 16.895 18.1103 16.6967C17.879 16.2837 17.7551 15.7549 17.7385 15.1105C17.722 14.4496 17.7468 13.7969 17.8129 13.1525C17.879 12.4915 17.9533 11.8884 18.036 11.3432C18.1186 10.7979 18.1434 10.4261 18.1103 10.2278C18.0773 10.0791 18.0277 9.91389 17.9616 9.73213C17.8955 9.58342 17.8129 9.41819 17.7137 9.23643C17.6146 9.03815 17.4742 8.83161 17.2924 8.6168ZM30.4037 8.14589C30.7177 8.16241 30.9986 8.17067 31.2464 8.17067C31.5108 8.15415 31.7338 8.13763 31.9156 8.1211C32.1304 8.10458 32.3204 8.08806 32.4857 8.07153C32.7335 8.03848 32.9896 7.99718 33.254 7.94761C33.4853 7.91456 33.7249 7.87325 33.9728 7.82368C34.2371 7.75759 34.4933 7.68323 34.7411 7.60062C34.642 7.84847 34.5593 8.06327 34.4933 8.24503C34.4272 8.42678 34.3776 8.58376 34.3445 8.71594C34.295 8.86465 34.2702 8.98858 34.2702 9.08772C34.2537 9.20338 34.2454 9.34383 34.2454 9.50907C34.2289 9.78996 34.2289 10.2444 34.2454 10.8722C35.1046 10.1287 35.8234 9.55038 36.4017 9.13729C36.9965 8.72421 37.4675 8.402 37.8145 8.17067C38.2275 7.9063 38.5497 7.7328 38.7811 7.65019C39.3924 7.55104 39.9294 7.69149 40.3921 8.07153C40.5904 8.23677 40.7804 8.45983 40.9622 8.74073C41.1439 9.0051 41.3009 9.36036 41.4331 9.80649C41.5653 10.2526 41.6644 10.7896 41.7305 11.4175C41.7966 12.0289 41.8049 12.7642 41.7553 13.6234C41.4083 13.6564 41.0943 13.6895 40.8134 13.7225C40.5491 13.7556 40.326 13.7804 40.1443 13.7969C39.9294 13.8299 39.7312 13.8465 39.5494 13.8465L38.8802 13.9208C38.6489 13.9539 38.3597 13.9869 38.0127 14.02C37.6823 14.0365 37.2774 14.0695 36.7983 14.1191C37.4922 13.5573 37.9384 13.0699 38.1367 12.6568C38.3515 12.2272 38.4423 11.8719 38.4093 11.591C38.3762 11.2771 38.2275 11.0044 37.9632 10.7731C37.6492 10.5913 37.3105 10.5253 36.947 10.5748C36.633 10.6079 36.2695 10.7483 35.8564 10.9962C35.4433 11.244 35.0055 11.7067 34.5428 12.3841C34.5759 13.4416 34.6089 14.3174 34.642 15.0114C34.6915 15.7053 34.7328 16.2671 34.7659 16.6967C34.8155 17.1924 34.8568 17.5807 34.8898 17.8616C34.9394 18.1095 35.0385 18.3739 35.1872 18.6548C35.3029 18.8861 35.4681 19.1422 35.6829 19.4231C35.8977 19.704 36.1786 19.9849 36.5256 20.2658C35.7986 20.2327 35.2038 20.2327 34.7411 20.2658C34.4602 20.2823 34.2124 20.2988 33.9975 20.3154C33.7662 20.3484 33.5184 20.3815 33.254 20.4145C33.0227 20.4476 32.75 20.4806 32.4361 20.5136C32.1387 20.5632 31.8082 20.6128 31.4447 20.6624C31.5769 20.4806 31.6843 20.2658 31.7669 20.0179C31.8495 19.7866 31.9156 19.5636 31.9652 19.3487C32.0313 19.1009 32.0808 18.8448 32.1139 18.5804C32.1304 18.3491 32.1387 18.0021 32.1387 17.5394C32.1552 17.0768 32.1469 16.5563 32.1139 15.978C32.0974 15.3831 32.0726 14.7718 32.0395 14.1439C32.0065 13.4995 31.9652 12.8964 31.9156 12.3346C31.866 11.7728 31.8082 11.2853 31.7421 10.8722C31.6925 10.4426 31.6347 10.1452 31.5686 9.97998C31.486 9.7817 31.3869 9.58342 31.2712 9.38514C31.172 9.20338 31.0481 9.01337 30.8994 8.81508C30.7507 8.60028 30.5855 8.37721 30.4037 8.14589ZM42.5484 8.14589C42.8624 8.16241 43.1432 8.17067 43.3911 8.17067C43.6555 8.15415 43.8785 8.13763 44.0603 8.1211C44.2751 8.10458 44.4651 8.08806 44.6304 8.07153C44.8782 8.03848 45.1343 7.99718 45.3987 7.94761C45.63 7.91456 45.8696 7.87325 46.1175 7.82368C46.3818 7.75759 46.6379 7.68323 46.8858 7.60062C46.7867 7.84847 46.704 8.06327 46.6379 8.24503C46.5719 8.42678 46.5223 8.58376 46.4892 8.71594C46.4397 8.86465 46.4149 8.98858 46.4149 9.08772C46.3984 9.20338 46.3901 9.34383 46.3901 9.50907C46.3736 9.78996 46.3736 10.2444 46.3901 10.8722C47.2493 10.1287 47.9681 9.55038 48.5464 9.13729C49.1412 8.72421 49.6122 8.402 49.9591 8.17067C50.3722 7.9063 50.6944 7.7328 50.9258 7.65019C51.5371 7.55104 52.0741 7.69149 52.5368 8.07153C52.7351 8.23677 52.9251 8.45983 53.1069 8.74073C53.2886 9.0051 53.4456 9.36036 53.5778 9.80649C53.71 10.2526 53.8091 10.7896 53.8752 11.4175C53.9413 12.0289 53.9495 12.7642 53.9 13.6234C53.553 13.6564 53.239 13.6895 52.9581 13.7225C52.6938 13.7556 52.4707 13.7804 52.2889 13.7969C52.0741 13.8299 51.8759 13.8465 51.6941 13.8465L51.0249 13.9208C50.7936 13.9539 50.5044 13.9869 50.1574 14.02C49.827 14.0365 49.4221 14.0695 48.943 14.1191C49.6369 13.5573 50.0831 13.0699 50.2814 12.6568C50.4962 12.2272 50.587 11.8719 50.554 11.591C50.5209 11.2771 50.3722 11.0044 50.1079 10.7731C49.7939 10.5913 49.4552 10.5253 49.0917 10.5748C48.7777 10.6079 48.4142 10.7483 48.0011 10.9962C47.588 11.244 47.1502 11.7067 46.6875 12.3841C46.7206 13.4416 46.7536 14.3174 46.7867 15.0114C46.8362 15.7053 46.8775 16.2671 46.9106 16.6967C46.9602 17.1924 47.0015 17.5807 47.0345 17.8616C47.0841 18.1095 47.1832 18.3739 47.3319 18.6548C47.4476 18.8861 47.6128 19.1422 47.8276 19.4231C48.0424 19.704 48.3233 19.9849 48.6703 20.2658C47.9433 20.2327 47.3485 20.2327 46.8858 20.2658C46.6049 20.2823 46.357 20.2988 46.1422 20.3154C45.9109 20.3484 45.6631 20.3815 45.3987 20.4145C45.1674 20.4476 44.8947 20.4806 44.5808 20.5136C44.2834 20.5632 43.9529 20.6128 43.5894 20.6624C43.7216 20.4806 43.829 20.2658 43.9116 20.0179C43.9942 19.7866 44.0603 19.5636 44.1099 19.3487C44.176 19.1009 44.2255 18.8448 44.2586 18.5804C44.2751 18.3491 44.2834 18.0021 44.2834 17.5394C44.2999 17.0768 44.2916 16.5563 44.2586 15.978C44.2421 15.3831 44.2173 14.7718 44.1842 14.1439C44.1512 13.4995 44.1099 12.8964 44.0603 12.3346C44.0107 11.7728 43.9529 11.2853 43.8868 10.8722C43.8372 10.4426 43.7794 10.1452 43.7133 9.97998C43.6307 9.7817 43.5315 9.58342 43.4159 9.38514C43.3167 9.20338 43.1928 9.01337 43.0441 8.81508C42.8954 8.60028 42.7302 8.37721 42.5484 8.14589ZM56.0315 20.9102C56.362 20.6789 56.6263 20.3732 56.8246 19.9932C57.0229 19.6131 57.1716 19.2413 57.2707 18.8778C57.3864 18.4482 57.4608 18.0021 57.4938 17.5394C57.4938 17.2585 57.4773 16.8124 57.4442 16.201C57.4112 15.6888 57.3616 14.9866 57.2955 14.0943C57.2294 13.1855 57.1303 12.0124 56.9981 10.5748C56.8164 10.5913 56.6594 10.6079 56.5272 10.6244C56.395 10.6244 56.2876 10.6244 56.205 10.6244H55.9324C55.8497 10.6244 55.7506 10.6327 55.6349 10.6492C55.5358 10.6657 55.4036 10.6905 55.2384 10.7235C55.0897 10.7566 54.9079 10.7979 54.6931 10.8475C54.7261 10.7153 54.7427 10.5831 54.7427 10.4509C54.7592 10.3022 54.7757 10.17 54.7922 10.0543C54.8088 9.92215 54.817 9.79823 54.817 9.68256V9.31079C54.817 9.19512 54.817 9.0712 54.817 8.93901C54.8335 8.80682 54.8501 8.67464 54.8666 8.54245L56.8246 8.59202C56.742 7.88151 56.709 7.24536 56.7255 6.68357C56.742 6.10525 56.7668 5.60955 56.7998 5.19646C56.8494 4.71728 56.9155 4.29594 56.9981 3.93242C57.1138 3.48629 57.2707 3.07321 57.469 2.69317C57.6673 2.31313 57.9399 1.99092 58.2869 1.72655C58.6339 1.46217 59.0635 1.26389 59.5758 1.13171C60.088 0.982996 60.7076 0.908641 61.4346 0.908641C62.2608 0.925165 62.9135 1.03257 63.3927 1.23085C63.8718 1.4126 64.2271 1.65219 64.4584 1.94961C64.6897 2.23051 64.8219 2.55272 64.855 2.91623C64.888 3.27975 64.8798 3.635 64.8302 3.98199C64.7972 4.31246 64.7393 4.61814 64.6567 4.89904C64.5906 5.17994 64.5658 5.38648 64.5823 5.51867C64.5989 5.61781 64.6402 5.75 64.7063 5.91523C64.7558 6.04742 64.8302 6.21265 64.9293 6.41093C65.045 6.60921 65.2102 6.83228 65.425 7.08013C65.1607 7.04708 64.8963 7.0223 64.6319 7.00577C64.3675 6.97273 64.1197 6.94794 63.8884 6.93142C63.624 6.91489 63.3679 6.90663 63.12 6.90663C62.8722 6.92316 62.6161 6.93968 62.3517 6.9562C62.1204 6.98925 61.8725 7.0223 61.6081 7.05534C61.3438 7.07187 61.0959 7.12144 60.8646 7.20405C61.1951 6.97273 61.4512 6.73314 61.6329 6.48529C61.8147 6.23744 61.9551 6.01437 62.0543 5.81609C62.1699 5.58476 62.2443 5.35343 62.2773 5.12211C62.2939 4.84121 62.2773 4.52726 62.2278 4.18027C62.1947 3.81676 62.1204 3.48629 62.0047 3.18887C61.889 2.89145 61.7486 2.65186 61.5834 2.4701C61.4181 2.27182 61.2198 2.19747 60.9885 2.24704C60.6415 2.37922 60.3193 2.70143 60.0219 3.21365C59.774 3.64326 59.5345 4.29594 59.3031 5.17168C59.0718 6.03089 58.9231 7.22884 58.857 8.76551C59.1709 8.79856 59.4601 8.82335 59.7245 8.83987C60.0054 8.83987 60.2532 8.84813 60.468 8.86465C60.7159 8.88118 60.9472 8.88944 61.162 8.88944C61.3768 8.88944 61.6164 8.88118 61.8808 8.86465C62.1121 8.84813 62.3847 8.83987 62.6987 8.83987C63.0126 8.82335 63.3596 8.79856 63.7397 8.76551L63.6901 10.0543C63.3927 10.0874 63.1035 10.1122 62.8226 10.1287C62.5417 10.1452 62.2939 10.1617 62.0791 10.1783C61.8312 10.1948 61.5999 10.2113 61.3851 10.2278C61.1537 10.2444 60.9142 10.2609 60.6663 10.2774C60.4515 10.2939 60.2036 10.3187 59.9228 10.3518C59.6584 10.3848 59.3775 10.4179 59.0801 10.4509C59.3114 12.318 59.5097 13.8299 59.6749 14.9866C59.8567 16.1267 60.0136 17.0107 60.1458 17.6386C60.278 18.3821 60.3937 18.9109 60.4928 19.2248C60.5919 19.4892 60.7076 19.7205 60.8398 19.9188C60.9555 20.1006 61.0959 20.2741 61.2611 20.4393C61.4264 20.6045 61.6164 20.7119 61.8312 20.7615C61.3025 20.6789 60.8481 20.6128 60.468 20.5632C60.088 20.5302 59.7658 20.5054 59.5014 20.4889C59.204 20.4723 58.9479 20.4641 58.7331 20.4641C58.5348 20.4806 58.2952 20.5054 58.0143 20.5384C57.5351 20.588 56.8742 20.7119 56.0315 20.9102ZM70.0846 16.0275C70.5473 16.0275 70.9769 15.978 71.3735 15.8788C71.7039 15.7962 72.0179 15.664 72.3153 15.4823C72.6292 15.284 72.8358 14.9948 72.9349 14.6148C73.2654 14.6809 73.5463 14.7387 73.7776 14.7883C74.0089 14.8213 74.2072 14.8544 74.3725 14.8874C74.5542 14.937 74.7112 14.97 74.8434 14.9866C74.9756 15.0196 75.1325 15.0527 75.3143 15.0857C75.4795 15.1188 75.6778 15.1601 75.9091 15.2096C76.157 15.2427 76.4461 15.2923 76.7766 15.3583C76.5288 15.3253 76.2726 15.3501 76.0083 15.4327C75.7604 15.5153 75.5208 15.6062 75.2895 15.7053C75.0251 15.821 74.7773 15.9615 74.546 16.1267C74.3972 16.2258 74.2237 16.3745 74.0255 16.5728C73.8437 16.7711 73.5793 16.9611 73.2323 17.1429C72.8854 17.3246 72.4227 17.4816 71.8444 17.6138C71.2826 17.7295 70.5556 17.7708 69.6633 17.7377C68.5893 17.7047 67.6887 17.5147 66.9617 17.1677C66.2347 16.8041 65.6481 16.3663 65.202 15.854C64.7558 15.3253 64.4336 14.7552 64.2354 14.1439C64.0371 13.5325 63.9297 12.9625 63.9132 12.4337C63.8966 11.905 64.0536 11.3514 64.3841 10.7731C64.7145 10.1948 65.1772 9.66604 65.772 9.18686C66.3834 8.70768 67.1187 8.31938 67.9779 8.02196C68.8371 7.70802 69.779 7.55104 70.8034 7.55104C71.3982 7.55104 71.9435 7.6254 72.4392 7.77411C72.9514 7.9063 73.4141 8.08806 73.8272 8.31938C74.2568 8.55071 74.6286 8.81508 74.9425 9.11251C75.2565 9.3934 75.5208 9.68256 75.7356 9.97998C75.9504 10.2939 76.1322 10.6244 76.2809 10.9714C76.4131 11.2688 76.5205 11.6075 76.6031 11.9876C76.6857 12.3676 76.7105 12.7559 76.6775 13.1525C75.4217 13.1855 74.4055 13.2103 73.6289 13.2268C72.8688 13.2434 72.274 13.2516 71.8444 13.2516H70.729H69.8864C69.5889 13.2516 69.2006 13.2599 68.7215 13.2764C68.2423 13.2929 67.6557 13.3177 66.9617 13.3508C67.0443 14.0117 67.2509 14.5239 67.5813 14.8874C67.9283 15.2344 68.2918 15.4988 68.6719 15.6806C69.1015 15.8788 69.5724 15.9945 70.0846 16.0275ZM67.854 11.5662C68.3827 11.5993 68.8206 11.6241 69.1676 11.6406C69.5311 11.6571 69.8285 11.6736 70.0599 11.6902C70.3077 11.7067 70.506 11.7149 70.6547 11.7149H71.2743C71.6874 11.7149 72.4557 11.6902 73.5793 11.6406C73.5298 10.9136 73.3728 10.36 73.1084 9.97998C72.8606 9.59995 72.5962 9.31905 72.3153 9.13729C71.9848 8.93901 71.6213 8.82335 71.2248 8.7903C70.1507 8.80682 69.3493 9.02989 68.8206 9.4595C68.3084 9.8891 67.9862 10.5913 67.854 11.5662ZM91.5237 11.2192C91.3255 11.1862 91.0776 11.1614 90.7802 11.1449C90.4993 11.1284 90.2267 11.1201 89.9623 11.1201C89.6649 11.1201 89.3509 11.1284 89.0204 11.1449C88.6735 11.1614 88.3265 11.1779 87.9795 11.1945C87.682 11.211 87.3433 11.2358 86.9633 11.2688C86.5998 11.2853 86.2445 11.3101 85.8975 11.3432C86.0297 11.2771 86.1454 11.1862 86.2445 11.0705C86.3602 10.9549 86.4593 10.8392 86.5419 10.7235C86.6246 10.5913 86.6989 10.4509 86.765 10.3022C86.8476 10.0543 86.8394 9.75692 86.7402 9.40993C86.6411 9.04641 86.4593 8.71594 86.1949 8.41852C85.9471 8.1211 85.6249 7.88977 85.2283 7.72454C84.8483 7.54278 84.4269 7.50147 83.9643 7.60062C83.4686 7.71628 83.0225 7.88977 82.6259 8.1211C82.2459 8.35243 81.9236 8.67464 81.6593 9.08772C81.4114 9.48428 81.2297 9.97998 81.114 10.5748C81.0149 11.1531 80.9901 11.8471 81.0396 12.6568C81.1057 13.6647 81.271 14.4661 81.5353 15.0609C81.7997 15.6558 82.1219 16.1019 82.502 16.3993C82.882 16.6967 83.2951 16.8785 83.7412 16.9446C84.2039 16.9942 84.6583 16.9942 85.1044 16.9446C85.4183 16.8785 85.7075 16.7381 85.9719 16.5232C86.1867 16.3415 86.385 16.0771 86.5667 15.7301C86.7485 15.3831 86.8311 14.904 86.8146 14.2926L89.8384 14.1687C89.4914 15.1435 89.07 15.9201 88.5743 16.4985C88.0786 17.0603 87.5994 17.4981 87.1368 17.8121C86.5915 18.1756 86.0462 18.4234 85.501 18.5556C84.8235 18.6713 84.2204 18.7209 83.6916 18.7043C83.1629 18.6713 82.6837 18.5887 82.2541 18.4565C81.8245 18.3243 81.4279 18.1591 81.0644 17.9608C80.7009 17.7625 80.3539 17.5477 80.0235 17.3164C79.8087 17.1677 79.5691 16.9198 79.3047 16.5728C79.0403 16.2258 78.7925 15.8127 78.5611 15.3336C78.3298 14.8379 78.1398 14.2926 77.9911 13.6977C77.8424 13.1029 77.7845 12.4915 77.8176 11.8637C77.8506 11.2192 77.9993 10.5748 78.2637 9.93041C78.5281 9.286 78.9494 8.66637 79.5278 8.07153C80.4035 7.17927 81.3371 6.60095 82.3285 6.33658C83.3364 6.05568 84.2865 5.98132 85.1788 6.11351C86.071 6.22917 86.8641 6.48529 87.5581 6.88185C88.2521 7.27841 88.7395 7.70802 89.0204 8.17067C89.3013 8.63333 89.5079 8.98858 89.6401 9.23643C89.7888 9.46776 89.8962 9.64952 89.9623 9.7817C90.0449 9.89737 90.111 9.98825 90.1606 10.0543C90.2267 10.1039 90.3175 10.1783 90.4332 10.2774C90.5158 10.36 90.615 10.4509 90.7306 10.55C90.8298 10.6327 90.9454 10.7318 91.0776 10.8475C91.2098 10.9631 91.3585 11.0871 91.5237 11.2192ZM90.8545 4.40334C91.3502 4.45291 91.7633 4.49422 92.0938 4.52726C92.4408 4.56031 92.7217 4.5851 92.9365 4.60162C93.1843 4.61814 93.3826 4.6264 93.5313 4.6264C93.68 4.64293 93.8783 4.64293 94.1262 4.6264C94.341 4.60988 94.6219 4.59336 94.9689 4.57683C95.3159 4.54379 95.7537 4.49422 96.2825 4.42812C96.1668 4.59336 96.0759 4.74207 96.0098 4.87426C95.9437 4.98992 95.8859 5.09732 95.8363 5.19646L95.6876 5.49388C95.6546 5.59302 95.6215 5.69216 95.5885 5.7913C95.5554 5.87392 95.5224 5.97306 95.4894 6.08872C95.4728 6.20439 95.4563 6.32831 95.4398 6.4605H99.2567L98.9097 8.46809L95.415 8.26981C95.3324 9.11251 95.2746 9.76518 95.2415 10.2278C95.2085 10.6905 95.1754 11.0292 95.1424 11.244L95.0928 11.6902C95.0432 12.318 94.9937 13.0038 94.9441 13.7473C94.8945 14.4743 94.878 15.1518 94.8945 15.7797C94.911 16.4076 94.9689 16.9363 95.068 17.3659C95.1672 17.779 95.3406 17.9856 95.5885 17.9856C95.8363 17.9856 96.0677 17.9195 96.2825 17.7873C96.4973 17.6551 96.679 17.4981 96.8278 17.3164C96.993 17.1346 97.1169 16.9529 97.1995 16.7711C97.2821 16.5728 97.3235 16.4241 97.3235 16.325C97.3235 16.2258 97.2987 16.1102 97.2491 15.978C97.1665 15.7301 97.0178 15.4162 96.803 15.0361C97.2821 15.1518 97.7035 15.2675 98.067 15.3831C98.2488 15.4492 98.414 15.5153 98.5627 15.5814C98.7279 15.6475 98.918 15.7219 99.1328 15.8045C99.3145 15.8871 99.5458 15.9862 99.8267 16.1019C100.108 16.2176 100.438 16.358 100.818 16.5232C100.455 16.5893 100.19 16.6967 100.025 16.8455C99.9259 16.9115 99.8515 16.9859 99.802 17.0685C99.6863 17.2503 99.5541 17.4981 99.4054 17.8121C99.2567 18.1095 99.0336 18.4069 98.7362 18.7043C98.4388 19.0018 98.034 19.2661 97.5217 19.4975C97.026 19.7288 96.3568 19.861 95.5141 19.894C94.6384 19.9271 93.9692 19.7784 93.5065 19.4479C93.0604 19.1174 92.7299 18.7374 92.5151 18.3078C92.3169 17.8616 92.2012 17.4238 92.1682 16.9942C92.1351 16.5646 92.1103 16.2754 92.0938 16.1267C92.0773 15.978 92.0773 15.6062 92.0938 15.0114C92.1103 14.4165 92.1351 13.7638 92.1682 13.0533C92.2012 12.3263 92.2342 11.6323 92.2673 10.9714C92.3003 10.2939 92.3169 9.79823 92.3169 9.48428C92.3169 9.31905 92.3251 9.14555 92.3417 8.96379C92.3417 8.81508 92.3417 8.65811 92.3417 8.49288C92.3582 8.31112 92.3664 8.13763 92.3664 7.97239L88.7726 7.94761L88.6239 6.53486L92.2425 6.634C92.2095 6.45224 92.1682 6.28701 92.1186 6.13829C92.0855 5.97306 92.0525 5.84087 92.0194 5.74173C91.9699 5.62607 91.9203 5.52693 91.8707 5.44431C91.8046 5.3617 91.7303 5.27082 91.6477 5.17168C91.5651 5.08906 91.4576 4.98166 91.3255 4.84947C91.1933 4.71728 91.0363 4.56857 90.8545 4.40334ZM0.215474 33.594C0.760746 33.6601 1.25645 33.7097 1.70258 33.7427C2.13219 33.7758 2.50396 33.8088 2.81791 33.8419C3.18142 33.8749 3.50363 33.8997 3.78453 33.9162C4.08195 33.9162 4.46199 33.908 4.92464 33.8914C5.3212 33.8749 5.82517 33.8501 6.43653 33.8171C7.0479 33.784 7.79971 33.7262 8.69197 33.6436C8.26237 33.8914 7.90711 34.1393 7.62622 34.3872C7.36184 34.635 7.1553 34.8581 7.00659 35.0563C6.82483 35.2877 6.69264 35.519 6.61003 35.7503C6.56046 36.0643 6.57698 36.6756 6.6596 37.5844C6.69264 37.9645 6.74221 38.4354 6.80831 38.9972C6.89092 39.5424 6.99006 40.1951 7.10573 40.9552C7.23792 41.6988 7.39489 42.558 7.57664 43.5328C7.77493 44.5077 7.99799 45.6148 8.24584 46.854C8.57631 45.9122 8.84895 45.0778 9.06375 44.3508C9.27855 43.6072 9.46031 42.9711 9.60902 42.4423C9.77426 41.8475 9.9147 41.3187 10.0304 40.8561C10.146 40.3769 10.2865 39.7573 10.4517 38.9972C10.5839 38.3528 10.7574 37.5183 10.9722 36.4939C11.187 35.4694 11.4514 34.2054 11.7653 32.7018L12.6576 32.8257C12.7402 33.9989 12.8228 35.0316 12.9054 35.9238C13.0046 36.8161 13.0872 37.5762 13.1533 38.2041C13.2194 38.9311 13.2855 39.559 13.3516 40.0877C13.4177 40.5669 13.5168 41.1204 13.649 41.7483C13.7647 42.2771 13.9134 42.9297 14.0951 43.7063C14.2769 44.4664 14.5165 45.3256 14.8139 46.284C15.1113 45.1108 15.3757 44.0616 15.607 43.1363C15.8549 42.211 16.0614 41.3931 16.2266 40.6826C16.4084 39.9721 16.5571 39.3607 16.6728 38.8485C16.805 38.3362 16.9124 37.9066 16.995 37.5596C17.1767 36.7335 17.2841 36.1799 17.3172 35.899C17.3007 35.5851 17.2263 35.2794 17.0941 34.982C16.9785 34.7176 16.7967 34.4285 16.5488 34.1145C16.301 33.8006 15.9375 33.4949 15.4583 33.1975C16.4662 33.2305 17.2841 33.2553 17.912 33.2718C18.5564 33.2718 19.0687 33.2718 19.4487 33.2718H20.4401H21.3324C21.6628 33.2718 22.0924 33.2718 22.6212 33.2718C23.1665 33.2553 23.8604 33.2305 24.7031 33.1975C23.9761 33.5775 23.3895 33.9245 22.9434 34.2384C22.4973 34.5524 22.1503 34.8168 21.9024 35.0316C21.605 35.2959 21.3902 35.519 21.258 35.7008C21.1258 36.0312 20.911 36.7748 20.6136 37.9314C20.4814 38.4271 20.3327 39.0467 20.1675 39.7903C20.0022 40.5173 19.804 41.3931 19.5726 42.4175C19.3578 43.442 19.11 44.6399 18.8291 46.0114C18.5482 47.3663 18.2342 48.9195 17.8872 50.671L13.5994 50.2248L11.7653 42.5167C11.4844 43.9211 11.2614 45.0613 11.0961 45.937C10.9309 46.7962 10.807 47.4654 10.7244 47.9446C10.6252 48.5229 10.5674 48.9443 10.5509 49.2086C10.5343 49.44 10.5178 49.663 10.5013 49.8778C10.4848 50.0596 10.46 50.2579 10.4269 50.4727C10.4104 50.6875 10.3856 50.8858 10.3526 51.0675H5.96561C5.53601 49.1838 5.14771 47.5232 4.80071 46.0857C4.47025 44.6317 4.17283 43.3594 3.90845 42.2688C3.64408 41.1783 3.41275 40.253 3.21447 39.4929C3.03271 38.7328 2.86748 38.0967 2.71877 37.5844C2.3883 36.3947 2.14871 35.6595 2 35.3786C1.88434 35.2464 1.73563 35.0894 1.55387 34.9076C1.40516 34.7589 1.2234 34.5772 1.0086 34.3624C0.777269 34.131 0.512895 33.8749 0.215474 33.594ZM27.9748 47.0275C28.4374 47.0275 28.867 46.978 29.2636 46.8788C29.5941 46.7962 29.908 46.664 30.2054 46.4823C30.5194 46.284 30.7259 45.9948 30.8251 45.6148C31.1555 45.6809 31.4364 45.7387 31.6678 45.7883C31.8991 45.8213 32.0974 45.8544 32.2626 45.8874C32.4444 45.937 32.6013 45.97 32.7335 45.9866C32.8657 46.0196 33.0227 46.0527 33.2044 46.0857C33.3697 46.1188 33.5679 46.1601 33.7993 46.2096C34.0471 46.2427 34.3363 46.2923 34.6667 46.3583C34.4189 46.3253 34.1628 46.3501 33.8984 46.4327C33.6506 46.5153 33.411 46.6062 33.1796 46.7053C32.9153 46.821 32.6674 46.9615 32.4361 47.1267C32.2874 47.2258 32.1139 47.3745 31.9156 47.5728C31.7338 47.7711 31.4695 47.9611 31.1225 48.1429C30.7755 48.3246 30.3128 48.4816 29.7345 48.6138C29.1727 48.7295 28.4457 48.7708 27.5534 48.7377C26.4794 48.7047 25.5789 48.5147 24.8519 48.1677C24.1248 47.8041 23.5382 47.3663 23.0921 46.854C22.646 46.3253 22.3238 45.7552 22.1255 45.1439C21.9272 44.5325 21.8198 43.9625 21.8033 43.4337C21.7868 42.905 21.9437 42.3514 22.2742 41.7731C22.6047 41.1948 23.0673 40.666 23.6622 40.1869C24.2735 39.7077 25.0088 39.3194 25.868 39.022C26.7273 38.708 27.6691 38.551 28.6935 38.551C29.2884 38.551 29.8337 38.6254 30.3294 38.7741C30.8416 38.9063 31.3042 39.0881 31.7173 39.3194C32.1469 39.5507 32.5187 39.8151 32.8327 40.1125C33.1466 40.3934 33.411 40.6826 33.6258 40.98C33.8406 41.2939 34.0223 41.6244 34.171 41.9714C34.3032 42.2688 34.4106 42.6075 34.4933 42.9876C34.5759 43.3676 34.6007 43.7559 34.5676 44.1525C33.3118 44.1855 32.2956 44.2103 31.519 44.2268C30.759 44.2434 30.1641 44.2516 29.7345 44.2516H28.6192H27.7765C27.4791 44.2516 27.0908 44.2599 26.6116 44.2764C26.1324 44.2929 25.5458 44.3177 24.8519 44.3508C24.9345 45.0117 25.141 45.5239 25.4715 45.8874C25.8185 46.2344 26.182 46.4988 26.562 46.6806C26.9916 46.8788 27.4625 46.9945 27.9748 47.0275ZM25.7441 42.5662C26.2729 42.5993 26.7107 42.6241 27.0577 42.6406C27.4212 42.6571 27.7187 42.6736 27.95 42.6902C28.1978 42.7067 28.3961 42.7149 28.5448 42.7149H29.1645C29.5775 42.7149 30.3459 42.6902 31.4695 42.6406C31.4199 41.9136 31.2629 41.36 30.9986 40.98C30.7507 40.5999 30.4863 40.319 30.2054 40.1373C29.875 39.939 29.5114 39.8233 29.1149 39.7903C28.0409 39.8068 27.2395 40.0299 26.7107 40.4595C26.1985 40.8891 25.8763 41.5913 25.7441 42.5662ZM37.4179 40.98C37.5005 40.8808 37.5501 40.6991 37.5666 40.4347C37.5996 40.1538 37.6657 39.8399 37.7649 39.4929C37.8805 39.1459 38.0706 38.7824 38.3349 38.4023C38.5993 38.0223 39.0289 37.667 39.6238 37.3366C40.2021 37.0061 40.7639 36.8078 41.3091 36.7417C41.8544 36.6756 42.3749 36.7004 42.8706 36.8161C43.3663 36.9318 43.829 37.1135 44.2586 37.3614C44.7047 37.6092 45.1095 37.8818 45.473 38.1793C45.7209 38.3775 45.9192 38.6667 46.0679 39.0467C46.2166 39.4103 46.3323 39.8233 46.4149 40.286C46.4975 40.7487 46.5553 41.2361 46.5884 41.7483C46.6379 42.244 46.671 42.7315 46.6875 43.2106C46.704 43.6733 46.7123 44.1029 46.7123 44.4995C46.7288 44.8795 46.7619 45.1934 46.8114 45.4413C46.8775 45.8048 46.9932 46.1188 47.1584 46.3831C47.3237 46.631 47.5054 46.8458 47.7037 47.0275C47.902 47.1928 48.1003 47.325 48.2985 47.4241C48.4968 47.5232 48.6703 47.5976 48.819 47.6472C48.9182 47.6967 49.0091 47.7298 49.0917 47.7463C49.2569 47.8124 49.3726 47.8124 49.4387 47.7463C49.3395 47.9776 49.2486 48.1759 49.166 48.3412C49.0834 48.5064 49.0173 48.6468 48.9677 48.7625C48.9016 48.8947 48.8438 49.0021 48.7942 49.0847C48.7447 49.1838 48.6868 49.2747 48.6208 49.3573C48.5712 49.44 48.5051 49.5308 48.4225 49.63C48.3399 49.7291 48.2572 49.8365 48.1746 49.9522C47.9598 49.8696 47.7533 49.7704 47.555 49.6548C47.3732 49.5391 47.208 49.4317 47.0593 49.3326C46.8775 49.2169 46.7123 49.1012 46.5636 48.9856C46.4149 48.8699 46.2744 48.7377 46.1422 48.589C46.0266 48.4568 45.9027 48.3164 45.7705 48.1677C45.6548 48.0189 45.5557 47.8537 45.473 47.672C45.3739 47.8868 45.1343 48.1924 44.7543 48.589C44.3908 48.9856 43.9116 49.3491 43.3167 49.6795C42.7219 49.9935 42.0279 50.2166 41.2348 50.3487C40.4582 50.4809 39.599 50.3901 38.6571 50.0761C38.2441 49.9439 37.8558 49.7539 37.4922 49.5061C37.1287 49.2417 36.8148 48.9277 36.5504 48.5642C36.3026 48.2007 36.1208 47.7876 36.0051 47.325C35.906 46.8458 35.9143 46.317 36.0299 45.7387C36.1456 45.1604 36.3521 44.673 36.6496 44.2764C36.947 43.8798 37.3022 43.5576 37.7153 43.3098C38.1284 43.0619 38.5911 42.8719 39.1033 42.7397C39.6155 42.6075 40.1443 42.5167 40.6895 42.4671C41.1191 42.4506 41.5487 42.4754 41.9783 42.5414C42.3419 42.6075 42.7219 42.7315 43.1185 42.9132C43.515 43.0785 43.8538 43.3346 44.1346 43.6816C44.1181 42.8058 44.0851 42.1118 44.0355 41.5996C44.0025 41.0709 43.9694 40.666 43.9364 40.3851C43.8703 40.0547 43.8124 39.8233 43.7629 39.6912C43.6803 39.5755 43.5894 39.4433 43.4902 39.2946C43.4076 39.1459 43.3002 39.0137 43.168 38.898C43.0358 38.7658 42.8706 38.6584 42.6723 38.5758C42.474 38.4932 42.2427 38.4602 41.9783 38.4767C41.6974 38.4932 41.4744 38.5676 41.3091 38.6998C41.1439 38.8319 41.0117 38.9889 40.9126 39.1707C40.83 39.3359 40.7804 39.5177 40.7639 39.7159C40.7474 39.9142 40.7556 40.0877 40.7887 40.2364C40.8217 40.3356 40.8713 40.443 40.9374 40.5586C41.0035 40.6578 41.0943 40.7652 41.21 40.8808C41.3257 40.9965 41.4826 41.0956 41.6809 41.1783C41.3009 41.2278 40.9622 41.2691 40.6647 41.3022C40.3673 41.3187 40.1112 41.3435 39.8964 41.3765C39.6485 41.4096 39.4337 41.4344 39.252 41.4509C39.0702 41.4674 38.8554 41.5005 38.6076 41.55C38.3928 41.5831 38.1284 41.6244 37.8145 41.674C37.5005 41.7235 37.137 41.7896 36.7239 41.8722C36.823 41.7566 36.9139 41.6492 36.9965 41.55C37.0792 41.4344 37.1535 41.3352 37.2196 41.2526C37.2857 41.1535 37.3518 41.0626 37.4179 40.98ZM41.1357 43.9294C40.8382 43.9459 40.5408 44.0203 40.2434 44.1525C39.946 44.2681 39.6816 44.4416 39.4503 44.673C39.2189 44.8878 39.0207 45.1439 38.8554 45.4413C38.7067 45.7222 38.6324 46.0361 38.6324 46.3831C38.6324 46.7301 38.715 47.0358 38.8802 47.3002C39.062 47.548 39.2933 47.7546 39.5742 47.9198C39.8716 48.085 40.1856 48.1842 40.516 48.2172C40.863 48.2503 41.2017 48.2172 41.5322 48.1181C41.8462 48.0024 42.1436 47.8207 42.4245 47.5728C42.7054 47.3084 42.945 47.0275 43.1432 46.7301C43.3415 46.4162 43.482 46.1105 43.5646 45.8131C43.6472 45.4991 43.6555 45.243 43.5894 45.0447C43.4572 44.6151 43.1598 44.3177 42.6971 44.1525C42.2345 43.9707 41.714 43.8964 41.1357 43.9294ZM48.8934 35.4033C49.3891 35.4529 49.8022 35.4942 50.1326 35.5273C50.4796 35.5603 50.7605 35.5851 50.9753 35.6016C51.2232 35.6181 51.4215 35.6264 51.5702 35.6264C51.7189 35.6429 51.9172 35.6429 52.165 35.6264C52.3798 35.6099 52.6607 35.5934 53.0077 35.5768C53.3547 35.5438 53.7926 35.4942 54.3213 35.4281C54.2057 35.5934 54.1148 35.7421 54.0487 35.8743C53.9826 35.9899 53.9248 36.0973 53.8752 36.1965L53.7265 36.4939C53.6934 36.593 53.6604 36.6922 53.6273 36.7913C53.5943 36.8739 53.5612 36.9731 53.5282 37.0887C53.5117 37.2044 53.4952 37.3283 53.4786 37.4605H57.2955L56.9485 39.4681L53.4538 39.2698C53.3712 40.1125 53.3134 40.7652 53.2803 41.2278C53.2473 41.6905 53.2143 42.0292 53.1812 42.244L53.1316 42.6902C53.0821 43.318 53.0325 44.0038 52.9829 44.7473C52.9334 45.4743 52.9168 46.1518 52.9334 46.7797C52.9499 47.4076 53.0077 47.9363 53.1069 48.3659C53.206 48.779 53.3795 48.9856 53.6273 48.9856C53.8752 48.9856 54.1065 48.9195 54.3213 48.7873C54.5361 48.6551 54.7179 48.4981 54.8666 48.3164C55.0318 48.1346 55.1558 47.9529 55.2384 47.7711C55.321 47.5728 55.3623 47.4241 55.3623 47.325C55.3623 47.2258 55.3375 47.1102 55.2879 46.978C55.2053 46.7301 55.0566 46.4162 54.8418 46.0361C55.321 46.1518 55.7423 46.2675 56.1058 46.3831C56.2876 46.4492 56.4528 46.5153 56.6015 46.5814C56.7668 46.6475 56.9568 46.7219 57.1716 46.8045C57.3534 46.8871 57.5847 46.9862 57.8656 47.1019C58.1465 47.2176 58.477 47.358 58.857 47.5232C58.4935 47.5893 58.2291 47.6967 58.0639 47.8455C57.9647 47.9115 57.8904 47.9859 57.8408 48.0685C57.7251 48.2503 57.593 48.4981 57.4442 48.8121C57.2955 49.1095 57.0725 49.4069 56.775 49.7043C56.4776 50.0018 56.0728 50.2661 55.5606 50.4975C55.0649 50.7288 54.3957 50.861 53.553 50.894C52.6772 50.9271 52.008 50.7784 51.5454 50.4479C51.0993 50.1174 50.7688 49.7374 50.554 49.3078C50.3557 48.8616 50.24 48.4238 50.207 47.9942C50.1739 47.5646 50.1492 47.2754 50.1326 47.1267C50.1161 46.978 50.1161 46.6062 50.1326 46.0114C50.1492 45.4165 50.1739 44.7638 50.207 44.0533C50.24 43.3263 50.2731 42.6323 50.3061 41.9714C50.3392 41.2939 50.3557 40.7982 50.3557 40.4843C50.3557 40.319 50.364 40.1456 50.3805 39.9638C50.3805 39.8151 50.3805 39.6581 50.3805 39.4929C50.397 39.3111 50.4053 39.1376 50.4053 38.9724L46.8114 38.9476L46.6627 37.5349L50.2814 37.634C50.2483 37.4522 50.207 37.287 50.1574 37.1383C50.1244 36.9731 50.0913 36.8409 50.0583 36.7417C50.0087 36.6261 49.9591 36.5269 49.9096 36.4443C49.8435 36.3617 49.7691 36.2708 49.6865 36.1717C49.6039 36.0891 49.4965 35.9817 49.3643 35.8495C49.2321 35.7173 49.0751 35.5686 48.8934 35.4033ZM57.7169 32.2308C58.0969 32.2969 58.4439 32.3465 58.7579 32.3796C59.0718 32.3961 59.3362 32.4126 59.551 32.4291C59.7988 32.4457 60.0136 32.4539 60.1954 32.4539C60.4432 32.4374 60.7324 32.4126 61.0629 32.3796C61.3438 32.3465 61.6825 32.3052 62.0791 32.2556C62.4921 32.2061 62.9631 32.14 63.4918 32.0574C63.244 32.1895 63.0374 32.3217 62.8722 32.4539C62.7069 32.5696 62.5748 32.6935 62.4756 32.8257C62.36 32.9744 62.2691 33.1148 62.203 33.247C62.1204 33.4618 62.0295 33.908 61.9303 34.5854C61.8312 35.1637 61.7073 36.023 61.5586 37.1631C61.4264 38.3032 61.2529 39.8481 61.0381 41.7979C61.6329 41.203 62.1947 40.7569 62.7235 40.4595C63.2687 40.1456 63.7479 39.9225 64.161 39.7903C64.6402 39.6416 65.0863 39.5672 65.4994 39.5672C66.0116 39.6168 66.5321 39.782 67.0609 40.0629C67.6061 40.3273 68.1101 40.6413 68.5727 41.0048C69.0519 41.3683 69.465 41.7566 69.812 42.1697C70.1755 42.5828 70.4316 42.9463 70.5803 43.2602C70.6795 43.475 70.7291 43.7559 70.7291 44.1029C70.7291 44.4334 70.696 44.7969 70.6299 45.1934C70.5638 45.59 70.4729 45.9948 70.3573 46.4079C70.2416 46.821 70.1259 47.2093 70.0103 47.5728C69.9111 47.9363 69.8203 48.2585 69.7376 48.5394C69.655 48.8038 69.6055 48.9938 69.5889 49.1095C69.5559 49.3573 69.5724 49.5969 69.6385 49.8283C69.6881 50.0265 69.7872 50.2413 69.9359 50.4727C70.0846 50.6875 70.3077 50.8692 70.6051 51.0179C70.3738 50.9849 70.1259 50.9601 69.8616 50.9436C69.6137 50.9105 69.3741 50.8858 69.1428 50.8692C68.8784 50.8527 68.6141 50.8444 68.3497 50.8444H67.4574C67.1765 50.8444 66.8543 50.8527 66.4908 50.8692C66.1273 50.8692 65.7307 50.8775 65.3011 50.894C65.5324 50.8114 65.7307 50.704 65.896 50.5718C66.0612 50.4231 66.2016 50.2827 66.3173 50.1505C66.4495 50.0018 66.5652 49.8448 66.6643 49.6795C66.7304 49.5474 66.813 49.2995 66.9121 48.936C67.0113 48.556 67.1022 48.1264 67.1848 47.6472C67.2674 47.1515 67.3252 46.631 67.3583 46.0857C67.4078 45.5404 67.4161 45.02 67.3831 44.5243C67.3665 44.012 67.2922 43.5576 67.16 43.1611C67.0443 42.7645 66.8626 42.4754 66.6147 42.2936C65.8712 41.7318 65.1937 41.4592 64.5823 41.4757C63.9875 41.4757 63.4174 41.7153 62.8722 42.1945C62.6739 42.3762 62.4839 42.558 62.3021 42.7397C62.1369 42.905 61.9551 43.1032 61.7568 43.3346C61.5586 43.5494 61.3768 43.7724 61.2116 44.0038C61.2116 44.2516 61.2198 44.5243 61.2364 44.8217C61.2529 45.1191 61.2694 45.4083 61.2859 45.6892C61.3025 46.0031 61.3272 46.317 61.3603 46.631C61.3933 47.1102 61.4429 47.5811 61.509 48.0437C61.5586 48.4403 61.6247 48.8782 61.7073 49.3573C61.7899 49.82 61.8973 50.2413 62.0295 50.6214C61.8147 50.5883 61.5916 50.5801 61.3603 50.5966C61.129 50.5966 60.9059 50.5966 60.6911 50.5966C60.4432 50.6131 60.2036 50.6214 59.9723 50.6214C59.7575 50.6379 59.5345 50.6627 59.3031 50.6957C59.1048 50.7288 58.89 50.7618 58.6587 50.7949C58.4274 50.8114 58.2043 50.8444 57.9895 50.894C58.1878 50.514 58.353 50.1422 58.4852 49.7787C58.6174 49.3987 58.7248 49.0682 58.8074 48.7873C58.9066 48.4568 58.9892 48.1346 59.0553 47.8207C59.1048 47.5728 59.1379 47.1019 59.1544 46.4079C59.1875 45.6974 59.2122 44.8878 59.2288 43.979C59.2453 43.0537 59.2536 42.0788 59.2536 41.0543C59.2536 40.0299 59.2453 39.055 59.2288 38.1297C59.2122 37.2044 59.1792 36.3947 59.1296 35.7008C59.0966 35.0068 59.0553 34.5276 59.0057 34.2632C58.9396 33.9989 58.8487 33.7345 58.7331 33.4701C58.6339 33.2388 58.5017 33.0157 58.3365 32.8009C58.1713 32.5696 57.9647 32.3796 57.7169 32.2308ZM78.4124 47.0275C78.8751 47.0275 79.3047 46.978 79.7013 46.8788C80.0317 46.7962 80.3457 46.664 80.6431 46.4823C80.957 46.284 81.1636 45.9948 81.2627 45.6148C81.5932 45.6809 81.8741 45.7387 82.1054 45.7883C82.3367 45.8213 82.535 45.8544 82.7002 45.8874C82.882 45.937 83.039 45.97 83.1712 45.9866C83.3034 46.0196 83.4603 46.0527 83.6421 46.0857C83.8073 46.1188 84.0056 46.1601 84.2369 46.2096C84.4848 46.2427 84.7739 46.2923 85.1044 46.3583C84.8565 46.3253 84.6004 46.3501 84.3361 46.4327C84.0882 46.5153 83.8486 46.6062 83.6173 46.7053C83.3529 46.821 83.1051 46.9615 82.8737 47.1267C82.725 47.2258 82.5515 47.3745 82.3533 47.5728C82.1715 47.7711 81.9071 47.9611 81.5601 48.1429C81.2131 48.3246 80.7505 48.4816 80.1722 48.6138C79.6104 48.7295 78.8833 48.7708 77.9911 48.7377C76.9171 48.7047 76.0165 48.5147 75.2895 48.1677C74.5625 47.8041 73.9759 47.3663 73.5298 46.854C73.0836 46.3253 72.7614 45.7552 72.5631 45.1439C72.3649 44.5325 72.2575 43.9625 72.2409 43.4337C72.2244 42.905 72.3814 42.3514 72.7119 41.7731C73.0423 41.1948 73.505 40.666 74.0998 40.1869C74.7112 39.7077 75.4465 39.3194 76.3057 39.022C77.1649 38.708 78.1067 38.551 79.1312 38.551C79.726 38.551 80.2713 38.6254 80.767 38.7741C81.2792 38.9063 81.7419 39.0881 82.155 39.3194C82.5846 39.5507 82.9564 39.8151 83.2703 40.1125C83.5842 40.3934 83.8486 40.6826 84.0634 40.98C84.2782 41.2939 84.46 41.6244 84.6087 41.9714C84.7409 42.2688 84.8483 42.6075 84.9309 42.9876C85.0135 43.3676 85.0383 43.7559 85.0053 44.1525C83.7495 44.1855 82.7333 44.2103 81.9567 44.2268C81.1966 44.2434 80.6018 44.2516 80.1722 44.2516H79.0568H78.2141C77.9167 44.2516 77.5284 44.2599 77.0492 44.2764C76.5701 44.2929 75.9835 44.3177 75.2895 44.3508C75.3721 45.0117 75.5787 45.5239 75.9091 45.8874C76.2561 46.2344 76.6196 46.4988 76.9997 46.6806C77.4293 46.8788 77.9002 46.9945 78.4124 47.0275ZM76.1818 42.5662C76.7105 42.5993 77.1484 42.6241 77.4954 42.6406C77.8589 42.6571 78.1563 42.6736 78.3876 42.6902C78.6355 42.7067 78.8338 42.7149 78.9825 42.7149H79.6021C80.0152 42.7149 80.7835 42.6902 81.9071 42.6406C81.8576 41.9136 81.7006 41.36 81.4362 40.98C81.1884 40.5999 80.924 40.319 80.6431 40.1373C80.3126 39.939 79.9491 39.8233 79.5525 39.7903C78.4785 39.8068 77.6771 40.0299 77.1484 40.4595C76.6362 40.8891 76.314 41.5913 76.1818 42.5662ZM85.7488 39.1459C86.0628 39.1624 86.3437 39.1707 86.5915 39.1707C86.8559 39.1541 87.079 39.1376 87.2607 39.1211C87.4755 39.1046 87.6655 39.0881 87.8308 39.0715C88.0786 39.0385 88.3347 38.9972 88.5991 38.9476C88.8304 38.9146 89.07 38.8733 89.3179 38.8237C89.5822 38.7576 89.8384 38.6832 90.0862 38.6006C89.9871 38.8485 89.9045 39.0633 89.8384 39.245C89.7723 39.4268 89.7227 39.5838 89.6896 39.7159C89.6401 39.8647 89.6153 39.9886 89.6153 40.0877C89.5988 40.2034 89.5905 40.3438 89.5905 40.5091C89.574 40.79 89.574 41.2444 89.5905 41.8722C90.4497 41.1287 91.1685 40.5504 91.7468 40.1373C92.3417 39.7242 92.8126 39.402 93.1596 39.1707C93.5726 38.9063 93.8949 38.7328 94.1262 38.6502C94.7375 38.551 95.2746 38.6915 95.7372 39.0715C95.9355 39.2368 96.1255 39.4598 96.3073 39.7407C96.489 40.0051 96.646 40.3604 96.7782 40.8065C96.9104 41.2526 97.0095 41.7896 97.0756 42.4175C97.1417 43.0289 97.15 43.7642 97.1004 44.6234C96.7534 44.6564 96.4395 44.6895 96.1586 44.7225C95.8942 44.7556 95.6711 44.7804 95.4894 44.7969C95.2746 44.8299 95.0763 44.8465 94.8945 44.8465L94.2253 44.9208C93.994 44.9539 93.7048 44.9869 93.3578 45.02C93.0274 45.0365 92.6225 45.0695 92.1434 45.1191C92.8374 44.5573 93.2835 44.0699 93.4818 43.6568C93.6966 43.2272 93.7874 42.8719 93.7544 42.591C93.7214 42.2771 93.5726 42.0044 93.3083 41.7731C92.9943 41.5913 92.6556 41.5253 92.2921 41.5748C91.9781 41.6079 91.6146 41.7483 91.2015 41.9962C90.7885 42.244 90.3506 42.7067 89.8879 43.3841C89.921 44.4416 89.954 45.3174 89.9871 46.0114C90.0366 46.7053 90.0779 47.2671 90.111 47.6967C90.1606 48.1924 90.2019 48.5807 90.2349 48.8616C90.2845 49.1095 90.3836 49.3739 90.5323 49.6548C90.648 49.8861 90.8132 50.1422 91.028 50.4231C91.2428 50.704 91.5237 50.9849 91.8707 51.2658C91.1437 51.2327 90.5489 51.2327 90.0862 51.2658C89.8053 51.2823 89.5575 51.2988 89.3427 51.3154C89.1113 51.3484 88.8635 51.3815 88.5991 51.4145C88.3678 51.4476 88.0951 51.4806 87.7812 51.5136C87.4838 51.5632 87.1533 51.6128 86.7898 51.6624C86.922 51.4806 87.0294 51.2658 87.112 51.0179C87.1946 50.7866 87.2607 50.5636 87.3103 50.3487C87.3764 50.1009 87.4259 49.8448 87.459 49.5804C87.4755 49.3491 87.4838 49.0021 87.4838 48.5394C87.5003 48.0768 87.492 47.5563 87.459 46.978C87.4425 46.3831 87.4177 45.7718 87.3846 45.1439C87.3516 44.4995 87.3103 43.8964 87.2607 43.3346C87.2111 42.7728 87.1533 42.2853 87.0872 41.8722C87.0376 41.4426 86.9798 41.1452 86.9137 40.98C86.8311 40.7817 86.732 40.5834 86.6163 40.3851C86.5172 40.2034 86.3932 40.0134 86.2445 39.8151C86.0958 39.6003 85.9306 39.3772 85.7488 39.1459Z" fill="black"/>
</svg>
