<svg width="464" height="464" viewBox="0 0 464 464" fill="none" xmlns="http://www.w3.org/2000/svg">
<g clip-path="url(#clip0_179_11718)">
<path d="M232 -0.185303C103.871 -0.185303 0 103.681 0 231.81C0 359.944 103.871 463.815 232 463.815C360.129 463.815 464 359.944 464 231.81C464 103.681 360.129 -0.185303 232 -0.185303Z" fill="#EDEDED"/>
<path d="M283.04 357.275V385.115H255.2V357.275H245.92V385.115H218.08V357.275H208.8V385.115H180.96V357.275H171.68V394.395H292.32V357.275H283.04Z" fill="#BEBEBE"/>
<path d="M218.223 37.5563C147.681 42.4004 86.9578 85.5849 57.0205 146.29L82.1879 158.614C108.947 104.576 164.172 66.6816 227.573 65.0436C229.058 65.0065 230.524 65.0436 232 65.0436V37.1387C227.438 37.1387 222.854 37.2361 218.223 37.5563Z" fill="#EFC75E"/>
<path d="M398.97 231.944C398.97 257.33 392.303 282.395 381.867 304.375C378.67 311.112 381.069 319.139 387.598 322.823L387.848 322.962C395.105 327.055 404.26 324.048 407.823 316.555C420.027 290.881 426.88 261.603 426.88 231.944C426.88 199.269 418.792 168.506 404.575 141.464L379.863 154.428C392.038 177.596 398.97 203.956 398.97 231.944Z" fill="#E2574C"/>
<path d="M76.1285 323.004L76.3791 322.87C82.9122 319.274 85.3065 311.423 82.1049 304.834C70.7879 281.537 64.0738 253.237 65.1317 225.472C66.1015 199.984 72.9548 175.912 84.2949 154.512L59.4431 141.474C47.5183 164.057 39.9041 189.219 37.7557 215.848C34.8836 251.428 41.7601 287.156 56.1533 316.74C59.7122 324.062 68.8669 327.009 76.1285 323.004Z" fill="#3DB39E"/>
<path d="M232 37.1387V65.0436C297.767 65.0483 354.663 103.022 381.877 158.284L406.896 145.979C375.125 81.4878 308.755 37.1526 232 37.1387Z" fill="#F4B459"/>
<path d="M232 208.795C219.184 208.795 208.8 219.18 208.8 231.995C208.8 244.811 219.184 255.195 232 255.195C244.815 255.195 255.2 244.811 255.2 231.995C255.2 219.18 244.815 208.795 232 208.795Z" fill="#1E2D36"/>
</g>
<defs>
<clipPath id="clip0_179_11718">
<rect width="464" height="464" fill="white"/>
</clipPath>
</defs>
</svg>
