<svg width="800" height="687" viewBox="0 0 800 687" fill="none" xmlns="http://www.w3.org/2000/svg">
<path d="M399.999 0C297.58 0 195.158 39.0289 117.095 117.095C-39.0316 273.222 -39.0316 526.776 117.095 682.905C122.478 688.299 131.217 688.305 136.608 682.922C141.999 677.538 142.008 668.8 136.625 663.409C136.619 663.403 136.614 663.397 136.608 663.392C-8.97568 517.808 -8.97568 282.195 136.608 136.611C282.192 -8.97292 517.805 -8.97292 663.389 136.611C808.973 282.195 808.973 517.808 663.389 663.392C657.995 668.775 657.984 677.511 663.367 682.905C668.75 688.299 677.486 688.31 682.88 682.927C682.888 682.919 682.894 682.913 682.902 682.905C839.029 526.778 839.029 273.224 682.902 117.095C604.842 39.0289 502.42 0 399.999 0ZM399.999 42.2516C309.977 42.2516 219.903 76.6258 151.24 145.291C13.9119 282.619 13.9119 505.48 151.24 642.808C153.878 645.556 158.246 645.645 160.994 643.007C163.742 640.369 163.83 636.001 161.192 633.253C161.129 633.187 161.063 633.121 160.994 633.055C28.9385 500.996 28.9385 287.106 160.994 155.051C227.021 89.0229 313.487 56.0476 399.999 56.0476C403.809 56.1028 406.941 53.0567 406.993 49.2462C407.046 45.4358 404.002 42.3041 400.192 42.2516C400.131 42.2489 400.065 42.2489 399.999 42.2516ZM433.479 342.513C433.478 396.513 381.591 514.517 468.093 389L441.387 353L437.976 342.513C427.064 335.265 414.007 331.019 399.999 331.019C362.065 331.019 331.019 362.065 331.019 399.999C331.019 437.932 362.065 468.979 399.999 468.979C437.932 468.979 468.979 437.932 468.979 399.999C468.979 385.993 463.101 383.413 455.853 372.5C463.979 365.509 446.058 342.144 433.479 342.513ZM399.999 358.611C423.019 358.611 445.479 377.172 445.479 400.192C445.479 423.212 423.019 441.387 399.999 441.387C376.979 441.387 358.611 423.019 358.611 399.999C358.611 376.979 376.979 358.611 399.999 358.611ZM399.999 365.509C381.032 365.509 365.509 381.032 365.509 399.999C365.453 403.809 368.5 406.941 372.31 406.993C376.12 407.048 379.252 404.002 379.305 400.192C379.305 400.126 379.305 400.062 379.305 399.996C379.305 388.484 388.487 379.302 399.999 379.302C403.809 379.357 406.941 376.311 406.993 372.5C407.048 368.69 404.002 365.558 400.192 365.506C400.131 365.506 400.065 365.506 399.999 365.509Z" fill="white" />
<ellipse cx="400" cy="396.5" rx="70" ry="70" fill="white"/>
</svg>
